<svg width="178" height="422" viewBox="0 0 178 422" fill="none" xmlns="http://www.w3.org/2000/svg">
<g opacity="0.9">
<path d="M63.4153 41.0833C54.4622 44.8421 55.2946 53.4384 58.3539 57.7355C59.0244 58.3916 61.549 62.6347 61.5237 71.786C61.492 83.2252 59.3647 90.0067 60.0439 93.0176C60.9496 97.032 62.8925 97.7044 64.2932 97.9578C65.6939 98.2111 68.9488 97.8616 70.6699 96.1164C74.0715 92.6672 75.6454 90.0911 80.364 88.1366C84.8963 86.2593 85.8055 84.9855 85.376 82.1055C84.9464 79.2255 80.0215 75.6814 78.3415 73.8909C75.2739 70.6215 71.1395 65.9862 70.3652 62.5194C68.6684 55.6172 73.429 53.5839 73.9086 49.4301C74.3882 45.2763 67.9816 39.1662 63.4153 41.0833Z" fill="#90739A"/>
<ellipse cx="3.85876" cy="5.84456" rx="3.85876" ry="5.84456" transform="matrix(0.965064 -0.262015 -0.262015 -0.965064 62.8819 114.079)" fill="#90739A"/>
<ellipse cx="1.96563" cy="3.09114" rx="1.96563" ry="3.09114" transform="matrix(0.973303 -0.229522 -0.229522 -0.973303 71.6024 106.436)" fill="#90739A"/>
<ellipse cx="1.58246" cy="2.64985" rx="1.58246" ry="2.64985" transform="matrix(0.954654 -0.297717 -0.297717 -0.954654 77.0105 102.297)" fill="#90739A"/>
<path d="M83.0615 94.1372C82.5959 92.8344 81.6895 92.0691 80.9406 92.3367C80.1918 92.6043 79.9622 93.8774 80.4278 95.1802C80.8934 96.4829 81.8778 97.3221 82.6266 97.0545C83.3754 96.7869 83.527 95.44 83.0615 94.1372Z" fill="#90739A"/>
<ellipse cx="1.39193" cy="2.03775" rx="1.39193" ry="2.03775" transform="matrix(0.973303 -0.229522 -0.229522 -0.973303 84.2394 93.1722)" fill="#90739A"/>
<path d="M20.9552 71.0489C23.3706 67.1711 29.7787 72.5016 27.6242 76.0799C24.4791 81.3033 24.8786 79.2919 23.0659 81.4142C22.0096 82.651 20.5462 85.0719 18.3967 85.3352C15.7572 85.6585 13.9754 83.0227 12.4112 81.539C11.2076 80.3972 8.79949 76.3071 8.37945 75.4567C7.0228 72.4153 12.6207 68.5159 14.7302 70.3186C15.1215 70.6529 17.2272 73.309 18.1611 73.2674C19.563 73.2049 20.9552 71.0489 20.9552 71.0489Z" fill="#E8DFAB"/>
<ellipse cx="1.95062" cy="3.20345" rx="1.95062" ry="3.20345" transform="matrix(0.971023 0.238987 0.238987 -0.971023 6.56287 89.7264)" fill="#E8DFAB"/>
<ellipse cx="2.05936" cy="3.20345" rx="2.05936" ry="3.20345" transform="matrix(0.989008 -0.147863 -0.147863 -0.989008 27.8374 89.4471)" fill="#E8DFAB"/>
<ellipse cx="2.37631" cy="3.69648" rx="2.37631" ry="3.69648" transform="matrix(0.99702 0.077149 0.077149 -0.99702 12.4802 97.42)" fill="#E8DFAB"/>
<ellipse cx="2.75545" cy="4.28626" rx="2.75545" ry="4.28626" transform="matrix(0.997555 -0.069886 -0.069886 -0.997555 20.62 96.7997)" fill="#E8DFAB"/>
<path d="M90.8987 125.713C91.8624 121.247 99.6944 124.1 98.875 128.196C97.679 134.175 97.3756 132.147 96.3863 134.756C95.8097 136.277 95.2501 139.05 93.3158 140.024C90.9407 141.22 88.3733 139.341 86.3999 138.473C84.8813 137.804 81.2333 134.768 80.5507 134.11C78.2465 131.705 82.1984 126.144 84.7928 127.128C85.274 127.311 88.1532 129.1 89.0181 128.745C90.3165 128.213 90.8987 125.713 90.8987 125.713Z" fill="#E8DFAB"/>
<ellipse cx="1.95062" cy="3.20345" rx="1.95062" ry="3.20345" transform="matrix(0.994678 -0.103027 -0.103027 -0.994678 83.6606 148.154)" fill="#E8DFAB"/>
<ellipse cx="2.05936" cy="3.20345" rx="2.05936" ry="3.20345" transform="matrix(0.880946 -0.473217 -0.473217 -0.880946 103.591 140.706)" fill="#E8DFAB"/>
<ellipse cx="2.37631" cy="3.69648" rx="2.37631" ry="3.69648" transform="matrix(0.964486 -0.264134 -0.264134 -0.964486 91.8287 153.397)" fill="#E8DFAB"/>
<ellipse cx="2.75545" cy="4.28626" rx="2.75545" ry="4.28626" transform="matrix(0.915328 -0.402709 -0.402709 -0.915328 99.2807 150.064)" fill="#E8DFAB"/>
<path d="M44.5465 8.52881C46.962 4.65095 53.3701 9.98152 51.2156 13.5598C48.0705 18.7832 48.4699 16.7718 46.6572 18.8941C45.6009 20.1308 44.1376 22.5518 41.988 22.8151C39.3486 23.1384 37.5668 20.5026 36.0026 19.0189C34.7989 17.8771 32.3908 13.787 31.9708 12.9366C30.6141 9.89515 36.212 5.99581 38.3215 7.79845C38.7128 8.13284 40.8186 10.7889 41.7525 10.7473C43.1543 10.6848 44.5465 8.52881 44.5465 8.52881Z" fill="#E8DFAB"/>
<ellipse cx="1.95062" cy="3.20345" rx="1.95062" ry="3.20345" transform="matrix(0.971023 0.238987 0.238987 -0.971023 30.1542 27.2063)" fill="#E8DFAB"/>
<ellipse cx="2.05936" cy="3.20345" rx="2.05936" ry="3.20345" transform="matrix(0.989008 -0.147863 -0.147863 -0.989008 51.4288 26.927)" fill="#E8DFAB"/>
<ellipse cx="2.37631" cy="3.69648" rx="2.37631" ry="3.69648" transform="matrix(0.99702 0.077149 0.077149 -0.99702 36.0716 34.8998)" fill="#E8DFAB"/>
<ellipse cx="2.75545" cy="4.28626" rx="2.75545" ry="4.28626" transform="matrix(0.997555 -0.069886 -0.069886 -0.997555 44.2113 34.2796)" fill="#E8DFAB"/>
<path d="M98.4925 223.646C91.2113 230.071 94.7487 237.949 99.0214 241.043C99.8665 241.45 103.615 244.663 106.517 253.342C110.145 264.191 110.298 271.297 111.904 273.932C114.046 277.446 116.102 277.462 117.51 277.254C118.918 277.047 121.89 275.675 122.963 273.471C125.083 269.115 125.751 266.171 129.597 262.81C133.291 259.582 133.745 258.085 132.417 255.493C131.089 252.902 125.29 251.118 123.125 249.959C119.173 247.842 113.774 244.772 111.932 241.735C108.117 235.738 111.978 232.289 111.104 228.2C110.23 224.111 102.206 220.37 98.4925 223.646Z" fill="#90739A"/>
<ellipse cx="3.85876" cy="5.84455" rx="3.85876" ry="5.84455" transform="matrix(0.83062 -0.556839 -0.556839 -0.83062 121.328 292.981)" fill="#90739A"/>
<ellipse cx="1.96563" cy="3.09114" rx="1.96563" ry="3.09114" transform="matrix(0.848817 -0.528686 -0.528686 -0.848817 127.146 282.95)" fill="#90739A"/>
<ellipse cx="1.58246" cy="2.64985" rx="1.58246" ry="2.64985" transform="matrix(0.809342 -0.587338 -0.587338 -0.809342 130.947 277.3)" fill="#90739A"/>
<path d="M134.071 267.633C133.214 266.548 132.11 266.112 131.486 266.605C130.862 267.098 131.052 268.378 131.909 269.463C132.767 270.549 133.968 271.029 134.592 270.536C135.216 270.043 134.929 268.719 134.071 267.633Z" fill="#90739A"/>
<ellipse cx="1.39193" cy="2.03775" rx="1.39193" ry="2.03775" transform="matrix(0.848817 -0.528686 -0.528686 -0.848817 134.879 266.342)" fill="#90739A"/>
<path d="M120.235 351.192C129.804 349.547 133.725 357.242 133.457 362.51C133.244 363.424 133.397 368.359 138.34 376.061C144.518 385.688 149.958 390.262 151.005 393.165C152.4 397.037 151.123 398.649 150.079 399.616C149.034 400.582 146.102 402.038 143.712 401.492C138.99 400.413 136.277 399.088 131.248 399.977C126.417 400.832 124.966 400.247 123.779 397.588C122.593 394.929 124.839 389.292 125.293 386.879C126.121 382.473 127.114 376.342 125.902 373.003C123.621 366.271 118.514 367.117 115.876 363.872C113.238 360.628 115.354 352.032 120.235 351.192Z" fill="#90739A"/>
<ellipse cx="154.513" cy="408.02" rx="3.85876" ry="5.84456" transform="rotate(162.659 154.513 408.02)" fill="#90739A"/>
<ellipse cx="145.6" cy="408.424" rx="1.96563" ry="3.09114" transform="rotate(160.738 145.6 408.424)" fill="#90739A"/>
<ellipse cx="139.468" cy="407.971" rx="1.58246" ry="2.64985" transform="rotate(164.79 139.468 407.971)" fill="#90739A"/>
<path d="M132.201 406.487C131.893 405.138 132.245 404.006 133.021 403.829C133.796 403.652 134.674 404.601 134.982 405.95C135.29 407.299 134.911 408.536 134.136 408.713C133.361 408.89 132.509 407.836 132.201 406.487Z" fill="#90739A"/>
<ellipse cx="128.702" cy="404.843" rx="1.39193" ry="2.03775" transform="rotate(160.738 128.702 404.843)" fill="#90739A"/>
<path d="M30.7524 146.673C40.4591 146.93 42.7998 155.244 41.5064 160.358C41.1194 161.212 40.3049 166.082 43.6462 174.601C47.8229 185.251 52.2641 190.8 52.7226 193.852C53.334 197.922 51.767 199.253 50.5534 199.997C49.3399 200.741 46.1797 201.595 43.943 200.592C39.5223 198.611 37.1216 196.781 32.0154 196.67C27.1108 196.563 25.8017 195.706 25.1579 192.866C24.5141 190.026 27.8191 184.938 28.7356 182.66C30.4093 178.501 32.5819 172.682 32.0467 169.171C31.1258 162.123 25.9519 161.954 23.999 158.256C22.046 154.559 25.8016 146.542 30.7524 146.673Z" fill="#90739A"/>
<ellipse cx="53.2586" cy="209.106" rx="3.85876" ry="5.84456" transform="rotate(173.933 53.2586 209.106)" fill="#90739A"/>
<ellipse cx="44.4389" cy="207.76" rx="1.96563" ry="3.09114" transform="rotate(172.013 44.4389 207.76)" fill="#90739A"/>
<ellipse cx="38.5141" cy="206.117" rx="1.58246" ry="2.64985" transform="rotate(176.064 38.5141 206.117)" fill="#90739A"/>
<path d="M31.6769 203.24C31.6385 201.857 32.2058 200.815 33.0007 200.793C33.7956 200.771 34.4711 201.874 34.5095 203.257C34.5479 204.64 33.9347 205.779 33.1398 205.801C32.3449 205.823 31.7153 204.623 31.6769 203.24Z" fill="#90739A"/>
<ellipse cx="28.5676" cy="200.943" rx="1.39193" ry="2.03775" transform="rotate(172.013 28.5676 200.943)" fill="#90739A"/>
<path d="M97.8911 358.225C98.9398 353.778 106.716 356.78 105.819 360.859C104.509 366.814 104.244 364.781 103.205 367.371C102.6 368.881 101.987 371.643 100.035 372.579C97.6375 373.73 95.1064 371.802 93.1499 370.896C91.6444 370.199 88.0549 367.094 87.385 366.422C85.1271 363.974 89.1842 358.49 91.7594 359.523C92.2371 359.715 95.0816 361.558 95.9531 361.22C97.2614 360.713 97.8911 358.225 97.8911 358.225Z" fill="#E8DFAB"/>
<ellipse cx="1.95062" cy="3.20345" rx="1.95062" ry="3.20345" transform="matrix(0.996462 -0.0840446 -0.0840446 -0.996462 90.2265 380.524)" fill="#E8DFAB"/>
<ellipse cx="2.05936" cy="3.20345" rx="2.05936" ry="3.20345" transform="matrix(0.889807 -0.456336 -0.456336 -0.889807 110.295 373.457)" fill="#E8DFAB"/>
<ellipse cx="2.37631" cy="3.69648" rx="2.37631" ry="3.69648" transform="matrix(0.969346 -0.245698 -0.245698 -0.969346 98.2932 385.921)" fill="#E8DFAB"/>
<ellipse cx="2.75545" cy="4.28626" rx="2.75545" ry="4.28626" transform="matrix(0.922839 -0.385185 -0.385185 -0.922839 105.807 382.731)" fill="#E8DFAB"/>
<path d="M135.342 306.067C136.391 301.62 144.167 304.622 143.27 308.701C141.96 314.656 141.695 312.623 140.656 315.213C140.051 316.723 139.438 319.484 137.486 320.421C135.088 321.571 132.557 319.644 130.601 318.738C129.095 318.041 125.506 314.936 124.836 314.264C122.578 311.816 126.635 306.332 129.21 307.365C129.688 307.557 132.532 309.4 133.404 309.062C134.712 308.555 135.342 306.067 135.342 306.067Z" fill="#E8DFAB"/>
<ellipse cx="1.95062" cy="3.20345" rx="1.95062" ry="3.20345" transform="matrix(0.996462 -0.0840446 -0.0840446 -0.996462 127.677 328.366)" fill="#E8DFAB"/>
<ellipse cx="2.05936" cy="3.20345" rx="2.05936" ry="3.20345" transform="matrix(0.889807 -0.456336 -0.456336 -0.889807 147.746 321.299)" fill="#E8DFAB"/>
<ellipse cx="2.37631" cy="3.69648" rx="2.37631" ry="3.69648" transform="matrix(0.969346 -0.245698 -0.245698 -0.969346 135.744 333.763)" fill="#E8DFAB"/>
<ellipse cx="2.75545" cy="4.28626" rx="2.75545" ry="4.28626" transform="matrix(0.922839 -0.385185 -0.385185 -0.922839 143.258 330.573)" fill="#E8DFAB"/>
<path d="M65.8394 260.298C66.8881 255.851 74.6642 258.853 73.767 262.933C72.4572 268.887 72.1925 266.854 71.1536 269.444C70.5482 270.954 69.9358 273.716 67.9833 274.652C65.5858 275.803 63.0547 273.875 61.0982 272.969C59.5927 272.272 56.0032 269.167 55.3332 268.496C53.0753 266.048 57.1325 260.563 59.7076 261.597C60.1853 261.788 63.0298 263.632 63.9014 263.293C65.2097 262.786 65.8394 260.298 65.8394 260.298Z" fill="#E8DFAB"/>
<ellipse cx="1.95062" cy="3.20345" rx="1.95062" ry="3.20345" transform="matrix(0.996462 -0.0840446 -0.0840446 -0.996462 58.1748 282.597)" fill="#E8DFAB"/>
<ellipse cx="2.05936" cy="3.20345" rx="2.05936" ry="3.20345" transform="matrix(0.889807 -0.456336 -0.456336 -0.889807 78.2432 275.53)" fill="#E8DFAB"/>
<ellipse cx="2.37631" cy="3.69648" rx="2.37631" ry="3.69648" transform="matrix(0.969346 -0.245698 -0.245698 -0.969346 66.2415 287.995)" fill="#E8DFAB"/>
<ellipse cx="2.75545" cy="4.28626" rx="2.75545" ry="4.28626" transform="matrix(0.922839 -0.385185 -0.385185 -0.922839 73.7556 284.804)" fill="#E8DFAB"/>
<path d="M83.9238 185.198C84.9725 180.751 92.7487 183.753 91.8514 187.833C90.5416 193.787 90.277 191.754 89.238 194.344C88.6326 195.854 88.0202 198.616 86.0677 199.552C83.6702 200.703 81.1391 198.775 79.1826 197.869C77.6771 197.172 74.0876 194.067 73.4177 193.396C71.1598 190.948 75.2169 185.463 77.7921 186.497C78.2698 186.688 81.1143 188.532 81.9858 188.194C83.2941 187.686 83.9238 185.198 83.9238 185.198Z" fill="#E8DFAB"/>
<ellipse cx="1.95062" cy="3.20345" rx="1.95062" ry="3.20345" transform="matrix(0.996462 -0.0840446 -0.0840446 -0.996462 76.2592 207.497)" fill="#E8DFAB"/>
<ellipse cx="2.05936" cy="3.20345" rx="2.05936" ry="3.20345" transform="matrix(0.889807 -0.456336 -0.456336 -0.889807 96.3276 200.43)" fill="#E8DFAB"/>
<ellipse cx="2.37631" cy="3.69648" rx="2.37631" ry="3.69648" transform="matrix(0.969346 -0.245698 -0.245698 -0.969346 84.3259 212.895)" fill="#E8DFAB"/>
<ellipse cx="2.75545" cy="4.28626" rx="2.75545" ry="4.28626" transform="matrix(0.922839 -0.385185 -0.385185 -0.922839 91.84 209.704)" fill="#E8DFAB"/>
</g>
</svg>
