<svg width="184" height="188" viewBox="0 0 184 188" fill="none" xmlns="http://www.w3.org/2000/svg">
<path d="M1 187L182 187" stroke="#90739A"/>
<line x1="1" y1="60.5" x2="58" y2="60.5" stroke="#90739A"/>
<line x1="125" y1="60.5" x2="182" y2="60.5" stroke="#90739A"/>
<path d="M78.7105 76.5939C78.6018 80.8828 86.3808 80.0121 86.5393 76.093C86.7708 70.372 86.0451 72.1558 85.7197 69.5552C85.5301 68.0396 85.6329 65.3851 84.0831 64.0684C82.1801 62.4515 79.4213 63.5983 77.4282 63.9541C75.8945 64.2278 71.8933 66.1917 71.1246 66.6417C68.4897 68.3262 70.8658 74.2756 73.4513 73.9514C73.9309 73.8913 76.9542 72.8959 77.6651 73.4109C78.7322 74.184 78.7105 76.5939 78.7105 76.5939Z" fill="#8FB15C" stroke="#8FB15C" stroke-width="1.25"/>
<ellipse cx="77.7905" cy="57.96" rx="1.83175" ry="3.00823" transform="rotate(19.5424 77.7905 57.96)" fill="#8FB15C" stroke="#8FB15C" stroke-width="1.25"/>
<ellipse cx="93.0431" cy="69.2506" rx="1.93386" ry="3.00823" transform="rotate(41.8723 93.0431 69.2506)" fill="#8FB15C" stroke="#8FB15C" stroke-width="1.25"/>
<ellipse cx="85.958" cy="55.6526" rx="2.2315" ry="3.47122" transform="rotate(28.9445 85.958 55.6526)" fill="#8FB15C" stroke="#8FB15C" stroke-width="1.25"/>
<ellipse cx="91.3613" cy="60.995" rx="2.58753" ry="4.02505" transform="rotate(37.3766 91.3613 60.995)" fill="#8FB15C" stroke="#8FB15C" stroke-width="1.25"/>
<path d="M114.052 79.5367C104.624 79.6985 102.001 71.7327 103.039 66.7167C103.378 65.8712 103.962 61.1124 100.359 52.9889C95.856 42.8345 91.3122 37.6394 90.738 34.6977C89.9724 30.7755 91.4363 29.4178 92.582 28.6446C93.7278 27.8715 96.7574 26.9088 98.9698 27.7865C103.342 29.5213 105.749 31.1953 110.707 31.0863C115.47 30.9817 116.777 31.7582 117.521 34.4859C118.266 37.2136 115.276 42.2902 114.483 44.5388C113.036 48.6447 111.175 54.3818 111.843 57.7659C113.035 64.5643 118.061 64.5089 120.113 68.0131C122.164 71.5173 118.86 79.4542 114.052 79.5367Z" fill="#90739A" stroke="#90739A" stroke-width="1.25" stroke-linecap="round" stroke-linejoin="round"/>
<ellipse cx="89.5717" cy="19.9223" rx="3.74711" ry="5.67544" transform="rotate(-8.56805 89.5717 19.9223)" fill="#90739A" stroke="#90739A" stroke-width="1.25" stroke-linecap="round" stroke-linejoin="round"/>
<ellipse cx="98.1851" cy="20.8544" rx="1.90875" ry="3.0017" transform="rotate(-10.4888 98.1851 20.8544)" fill="#90739A" stroke="#90739A" stroke-width="1.25" stroke-linecap="round" stroke-linejoin="round"/>
<ellipse cx="104.003" cy="22.1972" rx="1.53667" ry="2.57318" transform="rotate(-6.43721 104.003 22.1972)" fill="#90739A" stroke="#90739A" stroke-width="1.25" stroke-linecap="round" stroke-linejoin="round"/>
<path d="M110.758 24.698C110.853 26.038 110.347 27.0728 109.577 27.1279C108.807 27.183 108.105 26.1414 108.009 24.8013C107.913 23.4613 108.46 22.3304 109.23 22.2752C110 22.2201 110.662 23.3579 110.758 24.698Z" fill="#90739A" stroke="#90739A" stroke-width="1.25" stroke-linecap="round" stroke-linejoin="round"/>
<ellipse cx="113.871" cy="26.7944" rx="1.35165" ry="1.97879" transform="rotate(-10.4888 113.871 26.7944)" fill="#90739A" stroke="#90739A" stroke-width="1.25" stroke-linecap="round" stroke-linejoin="round"/>
<path d="M11.8002 122V94.7429H1V92H25.8493V94.7429H15.049V122H11.8002Z" fill="#2D4A00"/>
<path d="M55.0635 105.414H71.3077V108.114H55.0635V105.414ZM55.4148 119.257H73.898V122H52.1659V92H73.2395V94.7429H55.4148V119.257Z" fill="#2D4A00"/>
<path d="M95.6565 122L109.706 92H112.911L126.96 122H123.535L110.628 93.8429H111.945L99.0371 122H95.6565ZM101.188 113.986L102.154 111.414H120.023L120.989 113.986H101.188Z" fill="#2D4A00"/>
<path d="M150.082 122V92H152.76L166.809 115.4H165.405L179.322 92H182V122H178.883V96.7571H179.629L166.809 118.186H165.273L152.365 96.7571H153.199V122H150.082Z" fill="#2D4A00"/>
<mask id="path-16-outside-1_208_32" maskUnits="userSpaceOnUse" x="0" y="143" width="184" height="19" fill="black">
<rect fill="white" y="143" width="184" height="19"/>
<path d="M1 160.857V144.143H2.15239L8.19773 157.18H7.59319L13.5819 144.143H14.7342V160.857H13.3929V146.794H13.7141L8.19773 158.732H7.53652L1.98237 146.794H2.34131V160.857H1Z"/>
<path d="M23.9901 151.617H30.98V153.121H23.9901V151.617ZM24.1413 159.329H32.0946V160.857H22.7433V144.143H31.8113V145.671H24.1413V159.329Z"/>
<path d="M39.081 160.857V144.143H40.2334L49.3581 158.66H48.7536V144.143H50.1326V160.857H48.9803L39.8745 146.34H40.479V160.857H39.081Z"/>
<path d="M60.7953 161C59.8129 161 58.8683 160.801 57.9615 160.403C57.0673 159.989 56.3746 159.464 55.8835 158.827L56.4313 157.466C56.8973 158.039 57.5207 158.525 58.3016 158.923C59.095 159.305 59.9263 159.496 60.7953 159.496C61.6265 159.496 62.3003 159.368 62.8167 159.114C63.3457 158.843 63.7298 158.485 63.9691 158.039C64.221 157.594 64.3469 157.1 64.3469 156.559C64.3469 155.906 64.1958 155.381 63.8935 154.983C63.6039 154.585 63.2197 154.275 62.7411 154.052C62.2625 153.813 61.7336 153.606 61.1542 153.431C60.5749 153.256 59.9955 153.073 59.4162 152.882C58.8369 152.675 58.3016 152.404 57.8104 152.07C57.3318 151.736 56.9414 151.298 56.6391 150.757C56.3494 150.2 56.2046 149.476 56.2046 148.584C56.2046 147.757 56.3746 147 56.7147 146.316C57.0673 145.616 57.6026 145.059 58.3205 144.645C59.0384 144.215 59.9578 144 61.0787 144C61.8217 144 62.5585 144.135 63.289 144.406C64.0195 144.661 64.6492 145.019 65.1782 145.48L64.7059 146.889C64.1391 146.412 63.5346 146.061 62.8923 145.838C62.2625 145.616 61.6517 145.504 61.0598 145.504C60.2663 145.504 59.6114 145.64 59.095 145.91C58.5787 146.181 58.1945 146.547 57.9426 147.008C57.7034 147.454 57.5837 147.963 57.5837 148.537C57.5837 149.189 57.7285 149.714 58.0182 150.112C58.3205 150.51 58.7109 150.821 59.1895 151.044C59.6807 151.266 60.2159 151.465 60.7953 151.64C61.3746 151.816 61.9477 152.007 62.5144 152.213C63.0938 152.42 63.6227 152.691 64.1013 153.025C64.5925 153.344 64.9829 153.773 65.2726 154.315C65.5749 154.856 65.726 155.564 65.726 156.44C65.726 157.251 65.5497 158.007 65.197 158.708C64.8444 159.392 64.3028 159.949 63.5724 160.379C62.8545 160.793 61.9288 161 60.7953 161Z"/>
<path d="M78.2153 161C77.2203 161 76.301 160.793 75.4571 160.379C74.6133 159.949 73.8828 159.353 73.2657 158.588C72.6486 157.824 72.1637 156.925 71.811 155.89C71.471 154.856 71.301 153.726 71.301 152.5C71.301 151.274 71.471 150.144 71.811 149.11C72.1637 148.075 72.6486 147.176 73.2657 146.412C73.8954 145.647 74.6322 145.059 75.476 144.645C76.3199 144.215 77.2392 144 78.2342 144C79.1914 144 80.0919 144.207 80.9357 144.621C81.7795 145.019 82.4911 145.624 83.0705 146.435L82.1826 147.558C81.641 146.857 81.0428 146.356 80.3879 146.053C79.733 145.735 79.0277 145.576 78.272 145.576C77.4785 145.576 76.7418 145.751 76.0617 146.101C75.3816 146.435 74.7896 146.921 74.2859 147.558C73.7821 148.178 73.3853 148.911 73.0957 149.754C72.8186 150.582 72.6801 151.497 72.6801 152.5C72.6801 153.503 72.8186 154.426 73.0957 155.27C73.3853 156.097 73.7821 156.83 74.2859 157.466C74.7896 158.087 75.3816 158.573 76.0617 158.923C76.7418 159.257 77.4785 159.424 78.272 159.424C79.0277 159.424 79.733 159.265 80.3879 158.947C81.0428 158.628 81.641 158.119 82.1826 157.419L83.0705 158.541C82.4911 159.353 81.7795 159.965 80.9357 160.379C80.0919 160.793 79.1851 161 78.2153 161Z"/>
<path d="M98.4234 144.143H99.8025V160.857H98.4234V144.143ZM90.1489 160.857H88.7509V144.143H90.1489V160.857ZM98.5557 153.145H89.9977V151.593H98.5557V153.145Z"/>
<path d="M126.405 144.143H127.784V160.857H126.405V144.143ZM118.131 160.857H116.733V144.143H118.131V160.857ZM126.538 153.145H117.98V151.593H126.538V153.145Z"/>
<path d="M140.128 161C138.441 161 137.112 160.387 136.142 159.162C135.173 157.936 134.688 156.121 134.688 153.718V144.143H136.086V153.646C136.086 155.62 136.438 157.076 137.144 158.015C137.849 158.955 138.844 159.424 140.128 159.424C141.426 159.424 142.427 158.955 143.132 158.015C143.838 157.076 144.19 155.62 144.19 153.646V144.143H145.55V153.718C145.55 156.121 145.065 157.936 144.096 159.162C143.139 160.387 141.816 161 140.128 161Z"/>
<path d="M152.463 160.857V144.143H153.616L162.74 158.66H162.136V144.143H163.515V160.857H162.363L153.257 146.34H153.861V160.857H152.463Z"/>
<path d="M170.531 160.857V144.143H175.916C177.326 144.143 178.56 144.501 179.618 145.218C180.689 145.918 181.52 146.897 182.112 148.154C182.704 149.412 183 150.86 183 152.5C183 154.14 182.704 155.588 182.112 156.846C181.52 158.103 180.689 159.09 179.618 159.806C178.56 160.507 177.326 160.857 175.916 160.857H170.531ZM171.929 159.329H175.84C177.011 159.329 178.025 159.042 178.882 158.469C179.751 157.88 180.424 157.076 180.903 156.058C181.382 155.023 181.621 153.837 181.621 152.5C181.621 151.147 181.382 149.961 180.903 148.942C180.424 147.924 179.751 147.128 178.882 146.555C178.025 145.966 177.011 145.671 175.84 145.671H171.929V159.329Z"/>
</mask>
<path d="M1 160.857V144.143H2.15239L8.19773 157.18H7.59319L13.5819 144.143H14.7342V160.857H13.3929V146.794H13.7141L8.19773 158.732H7.53652L1.98237 146.794H2.34131V160.857H1Z" fill="#8FB15C"/>
<path d="M23.9901 151.617H30.98V153.121H23.9901V151.617ZM24.1413 159.329H32.0946V160.857H22.7433V144.143H31.8113V145.671H24.1413V159.329Z" fill="#8FB15C"/>
<path d="M39.081 160.857V144.143H40.2334L49.3581 158.66H48.7536V144.143H50.1326V160.857H48.9803L39.8745 146.34H40.479V160.857H39.081Z" fill="#8FB15C"/>
<path d="M60.7953 161C59.8129 161 58.8683 160.801 57.9615 160.403C57.0673 159.989 56.3746 159.464 55.8835 158.827L56.4313 157.466C56.8973 158.039 57.5207 158.525 58.3016 158.923C59.095 159.305 59.9263 159.496 60.7953 159.496C61.6265 159.496 62.3003 159.368 62.8167 159.114C63.3457 158.843 63.7298 158.485 63.9691 158.039C64.221 157.594 64.3469 157.1 64.3469 156.559C64.3469 155.906 64.1958 155.381 63.8935 154.983C63.6039 154.585 63.2197 154.275 62.7411 154.052C62.2625 153.813 61.7336 153.606 61.1542 153.431C60.5749 153.256 59.9955 153.073 59.4162 152.882C58.8369 152.675 58.3016 152.404 57.8104 152.07C57.3318 151.736 56.9414 151.298 56.6391 150.757C56.3494 150.2 56.2046 149.476 56.2046 148.584C56.2046 147.757 56.3746 147 56.7147 146.316C57.0673 145.616 57.6026 145.059 58.3205 144.645C59.0384 144.215 59.9578 144 61.0787 144C61.8217 144 62.5585 144.135 63.289 144.406C64.0195 144.661 64.6492 145.019 65.1782 145.48L64.7059 146.889C64.1391 146.412 63.5346 146.061 62.8923 145.838C62.2625 145.616 61.6517 145.504 61.0598 145.504C60.2663 145.504 59.6114 145.64 59.095 145.91C58.5787 146.181 58.1945 146.547 57.9426 147.008C57.7034 147.454 57.5837 147.963 57.5837 148.537C57.5837 149.189 57.7285 149.714 58.0182 150.112C58.3205 150.51 58.7109 150.821 59.1895 151.044C59.6807 151.266 60.2159 151.465 60.7953 151.64C61.3746 151.816 61.9477 152.007 62.5144 152.213C63.0938 152.42 63.6227 152.691 64.1013 153.025C64.5925 153.344 64.9829 153.773 65.2726 154.315C65.5749 154.856 65.726 155.564 65.726 156.44C65.726 157.251 65.5497 158.007 65.197 158.708C64.8444 159.392 64.3028 159.949 63.5724 160.379C62.8545 160.793 61.9288 161 60.7953 161Z" fill="#8FB15C"/>
<path d="M78.2153 161C77.2203 161 76.301 160.793 75.4571 160.379C74.6133 159.949 73.8828 159.353 73.2657 158.588C72.6486 157.824 72.1637 156.925 71.811 155.89C71.471 154.856 71.301 153.726 71.301 152.5C71.301 151.274 71.471 150.144 71.811 149.11C72.1637 148.075 72.6486 147.176 73.2657 146.412C73.8954 145.647 74.6322 145.059 75.476 144.645C76.3199 144.215 77.2392 144 78.2342 144C79.1914 144 80.0919 144.207 80.9357 144.621C81.7795 145.019 82.4911 145.624 83.0705 146.435L82.1826 147.558C81.641 146.857 81.0428 146.356 80.3879 146.053C79.733 145.735 79.0277 145.576 78.272 145.576C77.4785 145.576 76.7418 145.751 76.0617 146.101C75.3816 146.435 74.7896 146.921 74.2859 147.558C73.7821 148.178 73.3853 148.911 73.0957 149.754C72.8186 150.582 72.6801 151.497 72.6801 152.5C72.6801 153.503 72.8186 154.426 73.0957 155.27C73.3853 156.097 73.7821 156.83 74.2859 157.466C74.7896 158.087 75.3816 158.573 76.0617 158.923C76.7418 159.257 77.4785 159.424 78.272 159.424C79.0277 159.424 79.733 159.265 80.3879 158.947C81.0428 158.628 81.641 158.119 82.1826 157.419L83.0705 158.541C82.4911 159.353 81.7795 159.965 80.9357 160.379C80.0919 160.793 79.1851 161 78.2153 161Z" fill="#8FB15C"/>
<path d="M98.4234 144.143H99.8025V160.857H98.4234V144.143ZM90.1489 160.857H88.7509V144.143H90.1489V160.857ZM98.5557 153.145H89.9977V151.593H98.5557V153.145Z" fill="#8FB15C"/>
<path d="M126.405 144.143H127.784V160.857H126.405V144.143ZM118.131 160.857H116.733V144.143H118.131V160.857ZM126.538 153.145H117.98V151.593H126.538V153.145Z" fill="#8FB15C"/>
<path d="M140.128 161C138.441 161 137.112 160.387 136.142 159.162C135.173 157.936 134.688 156.121 134.688 153.718V144.143H136.086V153.646C136.086 155.62 136.438 157.076 137.144 158.015C137.849 158.955 138.844 159.424 140.128 159.424C141.426 159.424 142.427 158.955 143.132 158.015C143.838 157.076 144.19 155.62 144.19 153.646V144.143H145.55V153.718C145.55 156.121 145.065 157.936 144.096 159.162C143.139 160.387 141.816 161 140.128 161Z" fill="#8FB15C"/>
<path d="M152.463 160.857V144.143H153.616L162.74 158.66H162.136V144.143H163.515V160.857H162.363L153.257 146.34H153.861V160.857H152.463Z" fill="#8FB15C"/>
<path d="M170.531 160.857V144.143H175.916C177.326 144.143 178.56 144.501 179.618 145.218C180.689 145.918 181.52 146.897 182.112 148.154C182.704 149.412 183 150.86 183 152.5C183 154.14 182.704 155.588 182.112 156.846C181.52 158.103 180.689 159.09 179.618 159.806C178.56 160.507 177.326 160.857 175.916 160.857H170.531ZM171.929 159.329H175.84C177.011 159.329 178.025 159.042 178.882 158.469C179.751 157.88 180.424 157.076 180.903 156.058C181.382 155.023 181.621 153.837 181.621 152.5C181.621 151.147 181.382 149.961 180.903 148.942C180.424 147.924 179.751 147.128 178.882 146.555C178.025 145.966 177.011 145.671 175.84 145.671H171.929V159.329Z" fill="#8FB15C"/>
<path d="M1 160.857V144.143H2.15239L8.19773 157.18H7.59319L13.5819 144.143H14.7342V160.857H13.3929V146.794H13.7141L8.19773 158.732H7.53652L1.98237 146.794H2.34131V160.857H1Z" stroke="#8FB15C" mask="url(#path-16-outside-1_208_32)"/>
<path d="M23.9901 151.617H30.98V153.121H23.9901V151.617ZM24.1413 159.329H32.0946V160.857H22.7433V144.143H31.8113V145.671H24.1413V159.329Z" stroke="#8FB15C" mask="url(#path-16-outside-1_208_32)"/>
<path d="M39.081 160.857V144.143H40.2334L49.3581 158.66H48.7536V144.143H50.1326V160.857H48.9803L39.8745 146.34H40.479V160.857H39.081Z" stroke="#8FB15C" mask="url(#path-16-outside-1_208_32)"/>
<path d="M60.7953 161C59.8129 161 58.8683 160.801 57.9615 160.403C57.0673 159.989 56.3746 159.464 55.8835 158.827L56.4313 157.466C56.8973 158.039 57.5207 158.525 58.3016 158.923C59.095 159.305 59.9263 159.496 60.7953 159.496C61.6265 159.496 62.3003 159.368 62.8167 159.114C63.3457 158.843 63.7298 158.485 63.9691 158.039C64.221 157.594 64.3469 157.1 64.3469 156.559C64.3469 155.906 64.1958 155.381 63.8935 154.983C63.6039 154.585 63.2197 154.275 62.7411 154.052C62.2625 153.813 61.7336 153.606 61.1542 153.431C60.5749 153.256 59.9955 153.073 59.4162 152.882C58.8369 152.675 58.3016 152.404 57.8104 152.07C57.3318 151.736 56.9414 151.298 56.6391 150.757C56.3494 150.2 56.2046 149.476 56.2046 148.584C56.2046 147.757 56.3746 147 56.7147 146.316C57.0673 145.616 57.6026 145.059 58.3205 144.645C59.0384 144.215 59.9578 144 61.0787 144C61.8217 144 62.5585 144.135 63.289 144.406C64.0195 144.661 64.6492 145.019 65.1782 145.48L64.7059 146.889C64.1391 146.412 63.5346 146.061 62.8923 145.838C62.2625 145.616 61.6517 145.504 61.0598 145.504C60.2663 145.504 59.6114 145.64 59.095 145.91C58.5787 146.181 58.1945 146.547 57.9426 147.008C57.7034 147.454 57.5837 147.963 57.5837 148.537C57.5837 149.189 57.7285 149.714 58.0182 150.112C58.3205 150.51 58.7109 150.821 59.1895 151.044C59.6807 151.266 60.2159 151.465 60.7953 151.64C61.3746 151.816 61.9477 152.007 62.5144 152.213C63.0938 152.42 63.6227 152.691 64.1013 153.025C64.5925 153.344 64.9829 153.773 65.2726 154.315C65.5749 154.856 65.726 155.564 65.726 156.44C65.726 157.251 65.5497 158.007 65.197 158.708C64.8444 159.392 64.3028 159.949 63.5724 160.379C62.8545 160.793 61.9288 161 60.7953 161Z" stroke="#8FB15C" mask="url(#path-16-outside-1_208_32)"/>
<path d="M78.2153 161C77.2203 161 76.301 160.793 75.4571 160.379C74.6133 159.949 73.8828 159.353 73.2657 158.588C72.6486 157.824 72.1637 156.925 71.811 155.89C71.471 154.856 71.301 153.726 71.301 152.5C71.301 151.274 71.471 150.144 71.811 149.11C72.1637 148.075 72.6486 147.176 73.2657 146.412C73.8954 145.647 74.6322 145.059 75.476 144.645C76.3199 144.215 77.2392 144 78.2342 144C79.1914 144 80.0919 144.207 80.9357 144.621C81.7795 145.019 82.4911 145.624 83.0705 146.435L82.1826 147.558C81.641 146.857 81.0428 146.356 80.3879 146.053C79.733 145.735 79.0277 145.576 78.272 145.576C77.4785 145.576 76.7418 145.751 76.0617 146.101C75.3816 146.435 74.7896 146.921 74.2859 147.558C73.7821 148.178 73.3853 148.911 73.0957 149.754C72.8186 150.582 72.6801 151.497 72.6801 152.5C72.6801 153.503 72.8186 154.426 73.0957 155.27C73.3853 156.097 73.7821 156.83 74.2859 157.466C74.7896 158.087 75.3816 158.573 76.0617 158.923C76.7418 159.257 77.4785 159.424 78.272 159.424C79.0277 159.424 79.733 159.265 80.3879 158.947C81.0428 158.628 81.641 158.119 82.1826 157.419L83.0705 158.541C82.4911 159.353 81.7795 159.965 80.9357 160.379C80.0919 160.793 79.1851 161 78.2153 161Z" stroke="#8FB15C" mask="url(#path-16-outside-1_208_32)"/>
<path d="M98.4234 144.143H99.8025V160.857H98.4234V144.143ZM90.1489 160.857H88.7509V144.143H90.1489V160.857ZM98.5557 153.145H89.9977V151.593H98.5557V153.145Z" stroke="#8FB15C" mask="url(#path-16-outside-1_208_32)"/>
<path d="M126.405 144.143H127.784V160.857H126.405V144.143ZM118.131 160.857H116.733V144.143H118.131V160.857ZM126.538 153.145H117.98V151.593H126.538V153.145Z" stroke="#8FB15C" mask="url(#path-16-outside-1_208_32)"/>
<path d="M140.128 161C138.441 161 137.112 160.387 136.142 159.162C135.173 157.936 134.688 156.121 134.688 153.718V144.143H136.086V153.646C136.086 155.62 136.438 157.076 137.144 158.015C137.849 158.955 138.844 159.424 140.128 159.424C141.426 159.424 142.427 158.955 143.132 158.015C143.838 157.076 144.19 155.62 144.19 153.646V144.143H145.55V153.718C145.55 156.121 145.065 157.936 144.096 159.162C143.139 160.387 141.816 161 140.128 161Z" stroke="#8FB15C" mask="url(#path-16-outside-1_208_32)"/>
<path d="M152.463 160.857V144.143H153.616L162.74 158.66H162.136V144.143H163.515V160.857H162.363L153.257 146.34H153.861V160.857H152.463Z" stroke="#8FB15C" mask="url(#path-16-outside-1_208_32)"/>
<path d="M170.531 160.857V144.143H175.916C177.326 144.143 178.56 144.501 179.618 145.218C180.689 145.918 181.52 146.897 182.112 148.154C182.704 149.412 183 150.86 183 152.5C183 154.14 182.704 155.588 182.112 156.846C181.52 158.103 180.689 159.09 179.618 159.806C178.56 160.507 177.326 160.857 175.916 160.857H170.531ZM171.929 159.329H175.84C177.011 159.329 178.025 159.042 178.882 158.469C179.751 157.88 180.424 157.076 180.903 156.058C181.382 155.023 181.621 153.837 181.621 152.5C181.621 151.147 181.382 149.961 180.903 148.942C180.424 147.924 179.751 147.128 178.882 146.555C178.025 145.966 177.011 145.671 175.84 145.671H171.929V159.329Z" stroke="#8FB15C" mask="url(#path-16-outside-1_208_32)"/>
<circle cx="108" cy="153" r="2" fill="#8FB15C"/>
</svg>
