<svg width="184" height="187" viewBox="0 0 184 187" fill="none" xmlns="http://www.w3.org/2000/svg">
<path d="M1 186.187L182 186.187" stroke="#90739A"/>
<line x1="1" y1="59.6869" x2="58" y2="59.6869" stroke="#90739A"/>
<line x1="125" y1="59.6869" x2="182" y2="59.6869" stroke="#90739A"/>
<path d="M78.7105 75.7808C78.6018 80.0697 86.3808 79.199 86.5393 75.2799C86.7708 69.5589 86.0451 71.3427 85.7197 68.742C85.5301 67.2265 85.6329 64.572 84.0831 63.2553C82.1801 61.6384 79.4213 62.7852 77.4282 63.1409C75.8945 63.4147 71.8933 65.3786 71.1246 65.8285C68.4897 67.513 70.8658 73.4625 73.4513 73.1383C73.9309 73.0782 76.9542 72.0828 77.6651 72.5978C78.7322 73.3709 78.7105 75.7808 78.7105 75.7808Z" fill="#8AA95B" stroke="#8AA95B" stroke-width="1.25"/>
<ellipse cx="77.7905" cy="57.1469" rx="1.83175" ry="3.00823" transform="rotate(19.5424 77.7905 57.1469)" fill="#8AA95B" stroke="#8AA95B" stroke-width="1.25"/>
<ellipse cx="93.0431" cy="68.4375" rx="1.93386" ry="3.00823" transform="rotate(41.8723 93.0431 68.4375)" fill="#8AA95B" stroke="#8AA95B" stroke-width="1.25"/>
<ellipse cx="85.958" cy="54.8394" rx="2.2315" ry="3.47122" transform="rotate(28.9445 85.958 54.8394)" fill="#8AA95B" stroke="#8AA95B" stroke-width="1.25"/>
<ellipse cx="91.3613" cy="60.1819" rx="2.58753" ry="4.02505" transform="rotate(37.3766 91.3613 60.1819)" fill="#8AA95B" stroke="#8AA95B" stroke-width="1.25"/>
<path d="M114.052 78.7236C104.624 78.8854 102.001 70.9196 103.039 65.9036C103.378 65.0581 103.962 60.2993 100.359 52.1758C95.856 42.0213 91.3122 36.8263 90.738 33.8846C89.9724 29.9624 91.4363 28.6047 92.582 27.8315C93.7278 27.0584 96.7574 26.0957 98.9698 26.9734C103.342 28.7082 105.749 30.3821 110.707 30.2732C115.47 30.1686 116.777 30.9451 117.521 33.6728C118.266 36.4005 115.276 41.4771 114.483 43.7257C113.036 47.8316 111.175 53.5687 111.843 56.9528C113.035 63.7511 118.061 63.6958 120.113 67.2C122.164 70.7042 118.86 78.641 114.052 78.7236Z" fill="#90739A" stroke="#90739A" stroke-width="1.25" stroke-linecap="round" stroke-linejoin="round"/>
<ellipse cx="89.5717" cy="19.1092" rx="3.74711" ry="5.67544" transform="rotate(-8.56805 89.5717 19.1092)" fill="#90739A" stroke="#90739A" stroke-width="1.25" stroke-linecap="round" stroke-linejoin="round"/>
<ellipse cx="98.1851" cy="20.0413" rx="1.90875" ry="3.0017" transform="rotate(-10.4888 98.1851 20.0413)" fill="#90739A" stroke="#90739A" stroke-width="1.25" stroke-linecap="round" stroke-linejoin="round"/>
<ellipse cx="104.003" cy="21.3841" rx="1.53667" ry="2.57318" transform="rotate(-6.43721 104.003 21.3841)" fill="#90739A" stroke="#90739A" stroke-width="1.25" stroke-linecap="round" stroke-linejoin="round"/>
<path d="M110.758 23.8848C110.853 25.2249 110.347 26.2597 109.577 26.3148C108.807 26.3699 108.105 25.3283 108.009 23.9882C107.913 22.6482 108.46 21.5172 109.23 21.4621C110 21.407 110.662 22.5448 110.758 23.8848Z" fill="#90739A" stroke="#90739A" stroke-width="1.25" stroke-linecap="round" stroke-linejoin="round"/>
<ellipse cx="113.871" cy="25.9813" rx="1.35165" ry="1.97879" transform="rotate(-10.4888 113.871 25.9813)" fill="#90739A" stroke="#90739A" stroke-width="1.25" stroke-linecap="round" stroke-linejoin="round"/>
<path d="M11.8002 121.187V93.9297H1V91.1869H25.8493V93.9297H15.049V121.187H11.8002Z" fill="#2D4A00"/>
<path d="M55.0635 104.601H71.3077V107.301H55.0635V104.601ZM55.4148 118.444H73.898V121.187H52.1659V91.1869H73.2395V93.9297H55.4148V118.444Z" fill="#2D4A00"/>
<path d="M95.6565 121.187L109.706 91.1869H112.911L126.96 121.187H123.535L110.628 93.0297H111.945L99.0371 121.187H95.6565ZM101.188 113.173L102.154 110.601H120.023L120.989 113.173H101.188Z" fill="#2D4A00"/>
<path d="M150.082 121.187V91.1869H152.76L166.809 114.587H165.405L179.322 91.1869H182V121.187H178.883V95.944H179.629L166.809 117.373H165.273L152.365 95.944H153.199V121.187H150.082Z" fill="#2D4A00"/>
<mask id="path-16-outside-1_208_32" maskUnits="userSpaceOnUse" x="0" y="137" width="184" height="24" fill="black">
<rect fill="white" y="137" width="184" height="24"/>
<path d="M1 159.815V138.185H2.15239L8.19773 155.056H7.59319L13.5819 138.185H14.7342V159.815H13.3929V141.615H13.7141L8.19773 157.065H7.53652L1.98237 141.615H2.34131V159.815H1Z"/>
<path d="M23.9901 147.857H30.98V149.803H23.9901V147.857ZM24.1413 157.837H32.0946V159.815H22.7433V138.185H31.8113V140.163H24.1413V157.837Z"/>
<path d="M39.081 159.815V138.185H40.2334L49.3581 156.972H48.7536V138.185H50.1326V159.815H48.9803L39.8745 141.028H40.479V159.815H39.081Z"/>
<path d="M60.7953 160C59.8129 160 58.8683 159.743 57.9615 159.228C57.0673 158.692 56.3746 158.012 55.8835 157.188L56.4313 155.427C56.8973 156.169 57.5207 156.797 58.3016 157.312C59.095 157.806 59.9263 158.053 60.7953 158.053C61.6265 158.053 62.3003 157.889 62.8167 157.559C63.3457 157.209 63.7298 156.745 63.9691 156.169C64.221 155.592 64.3469 154.953 64.3469 154.253C64.3469 153.408 64.1958 152.728 63.8935 152.213C63.6039 151.699 63.2197 151.297 62.7411 151.008C62.2625 150.699 61.7336 150.432 61.1542 150.205C60.5749 149.978 59.9955 149.742 59.4162 149.494C58.8369 149.227 58.3016 148.876 57.8104 148.444C57.3318 148.011 56.9414 147.445 56.6391 146.744C56.3494 146.023 56.2046 145.086 56.2046 143.933C56.2046 142.861 56.3746 141.883 56.7147 140.997C57.0673 140.091 57.6026 139.37 58.3205 138.834C59.0384 138.278 59.9578 138 61.0787 138C61.8217 138 62.5585 138.175 63.289 138.525C64.0195 138.855 64.6492 139.318 65.1782 139.916L64.7059 141.739C64.1391 141.121 63.5346 140.668 62.8923 140.379C62.2625 140.091 61.6517 139.947 61.0598 139.947C60.2663 139.947 59.6114 140.122 59.095 140.472C58.5787 140.822 58.1945 141.296 57.9426 141.893C57.7034 142.47 57.5837 143.129 57.5837 143.871C57.5837 144.715 57.7285 145.395 58.0182 145.91C58.3205 146.425 58.7109 146.827 59.1895 147.115C59.6807 147.404 60.2159 147.661 60.7953 147.888C61.3746 148.114 61.9477 148.361 62.5144 148.629C63.0938 148.897 63.6227 149.247 64.1013 149.68C64.5925 150.092 64.9829 150.648 65.2726 151.348C65.5749 152.049 65.726 152.965 65.726 154.098C65.726 155.149 65.5497 156.127 65.197 157.034C64.8444 157.919 64.3028 158.64 63.5724 159.197C62.8545 159.732 61.9288 160 60.7953 160Z"/>
<path d="M78.2153 160C77.2203 160 76.301 159.732 75.4571 159.197C74.6133 158.64 73.8828 157.868 73.2657 156.879C72.6486 155.89 72.1637 154.727 71.811 153.388C71.471 152.049 71.301 150.586 71.301 149C71.301 147.414 71.471 145.951 71.811 144.612C72.1637 143.273 72.6486 142.11 73.2657 141.121C73.8954 140.132 74.6322 139.37 75.476 138.834C76.3199 138.278 77.2392 138 78.2342 138C79.1914 138 80.0919 138.268 80.9357 138.803C81.7795 139.318 82.4911 140.101 83.0705 141.152L82.1826 142.604C81.641 141.698 81.0428 141.049 80.3879 140.657C79.733 140.245 79.0277 140.039 78.272 140.039C77.4785 140.039 76.7418 140.266 76.0617 140.719C75.3816 141.152 74.7896 141.78 74.2859 142.604C73.7821 143.407 73.3853 144.355 73.0957 145.447C72.8186 146.518 72.6801 147.702 72.6801 149C72.6801 150.298 72.8186 151.493 73.0957 152.584C73.3853 153.655 73.7821 154.603 74.2859 155.427C74.7896 156.23 75.3816 156.859 76.0617 157.312C76.7418 157.744 77.4785 157.961 78.272 157.961C79.0277 157.961 79.733 157.755 80.3879 157.343C81.0428 156.931 81.641 156.272 82.1826 155.365L83.0705 156.817C82.4911 157.868 81.7795 158.661 80.9357 159.197C80.0919 159.732 79.1851 160 78.2153 160Z"/>
<path d="M98.4234 138.185H99.8025V159.815H98.4234V138.185ZM90.1489 159.815H88.7509V138.185H90.1489V159.815ZM98.5557 149.834H89.9977V147.826H98.5557V149.834Z"/>
<path d="M126.405 138.185H127.784V159.815H126.405V138.185ZM118.131 159.815H116.733V138.185H118.131V159.815ZM126.538 149.834H117.98V147.826H126.538V149.834Z"/>
<path d="M140.128 160C138.441 160 137.112 159.207 136.142 157.621C135.173 156.035 134.688 153.686 134.688 150.576V138.185H136.086V150.483C136.086 153.037 136.438 154.922 137.144 156.138C137.849 157.353 138.844 157.961 140.128 157.961C141.426 157.961 142.427 157.353 143.132 156.138C143.838 154.922 144.19 153.037 144.19 150.483V138.185H145.55V150.576C145.55 153.686 145.065 156.035 144.096 157.621C143.139 159.207 141.816 160 140.128 160Z"/>
<path d="M152.463 159.815V138.185H153.616L162.74 156.972H162.136V138.185H163.515V159.815H162.363L153.257 141.028H153.861V159.815H152.463Z"/>
<path d="M170.531 159.815V138.185H175.916C177.326 138.185 178.56 138.649 179.618 139.576C180.689 140.482 181.52 141.749 182.112 143.376C182.704 145.004 183 146.878 183 149C183 151.122 182.704 152.996 182.112 154.624C181.52 156.251 180.689 157.528 179.618 158.455C178.56 159.361 177.326 159.815 175.916 159.815H170.531ZM171.929 157.837H175.84C177.011 157.837 178.025 157.466 178.882 156.725C179.751 155.963 180.424 154.922 180.903 153.604C181.382 152.265 181.621 150.73 181.621 149C181.621 147.249 181.382 145.714 180.903 144.396C180.424 143.078 179.751 142.048 178.882 141.306C178.025 140.544 177.011 140.163 175.84 140.163H171.929V157.837Z"/>
</mask>
<path d="M1 159.815V138.185H2.15239L8.19773 155.056H7.59319L13.5819 138.185H14.7342V159.815H13.3929V141.615H13.7141L8.19773 157.065H7.53652L1.98237 141.615H2.34131V159.815H1Z" fill="#8AA95B"/>
<path d="M23.9901 147.857H30.98V149.803H23.9901V147.857ZM24.1413 157.837H32.0946V159.815H22.7433V138.185H31.8113V140.163H24.1413V157.837Z" fill="#8AA95B"/>
<path d="M39.081 159.815V138.185H40.2334L49.3581 156.972H48.7536V138.185H50.1326V159.815H48.9803L39.8745 141.028H40.479V159.815H39.081Z" fill="#8AA95B"/>
<path d="M60.7953 160C59.8129 160 58.8683 159.743 57.9615 159.228C57.0673 158.692 56.3746 158.012 55.8835 157.188L56.4313 155.427C56.8973 156.169 57.5207 156.797 58.3016 157.312C59.095 157.806 59.9263 158.053 60.7953 158.053C61.6265 158.053 62.3003 157.889 62.8167 157.559C63.3457 157.209 63.7298 156.745 63.9691 156.169C64.221 155.592 64.3469 154.953 64.3469 154.253C64.3469 153.408 64.1958 152.728 63.8935 152.213C63.6039 151.699 63.2197 151.297 62.7411 151.008C62.2625 150.699 61.7336 150.432 61.1542 150.205C60.5749 149.978 59.9955 149.742 59.4162 149.494C58.8369 149.227 58.3016 148.876 57.8104 148.444C57.3318 148.011 56.9414 147.445 56.6391 146.744C56.3494 146.023 56.2046 145.086 56.2046 143.933C56.2046 142.861 56.3746 141.883 56.7147 140.997C57.0673 140.091 57.6026 139.37 58.3205 138.834C59.0384 138.278 59.9578 138 61.0787 138C61.8217 138 62.5585 138.175 63.289 138.525C64.0195 138.855 64.6492 139.318 65.1782 139.916L64.7059 141.739C64.1391 141.121 63.5346 140.668 62.8923 140.379C62.2625 140.091 61.6517 139.947 61.0598 139.947C60.2663 139.947 59.6114 140.122 59.095 140.472C58.5787 140.822 58.1945 141.296 57.9426 141.893C57.7034 142.47 57.5837 143.129 57.5837 143.871C57.5837 144.715 57.7285 145.395 58.0182 145.91C58.3205 146.425 58.7109 146.827 59.1895 147.115C59.6807 147.404 60.2159 147.661 60.7953 147.888C61.3746 148.114 61.9477 148.361 62.5144 148.629C63.0938 148.897 63.6227 149.247 64.1013 149.68C64.5925 150.092 64.9829 150.648 65.2726 151.348C65.5749 152.049 65.726 152.965 65.726 154.098C65.726 155.149 65.5497 156.127 65.197 157.034C64.8444 157.919 64.3028 158.64 63.5724 159.197C62.8545 159.732 61.9288 160 60.7953 160Z" fill="#8AA95B"/>
<path d="M78.2153 160C77.2203 160 76.301 159.732 75.4571 159.197C74.6133 158.64 73.8828 157.868 73.2657 156.879C72.6486 155.89 72.1637 154.727 71.811 153.388C71.471 152.049 71.301 150.586 71.301 149C71.301 147.414 71.471 145.951 71.811 144.612C72.1637 143.273 72.6486 142.11 73.2657 141.121C73.8954 140.132 74.6322 139.37 75.476 138.834C76.3199 138.278 77.2392 138 78.2342 138C79.1914 138 80.0919 138.268 80.9357 138.803C81.7795 139.318 82.4911 140.101 83.0705 141.152L82.1826 142.604C81.641 141.698 81.0428 141.049 80.3879 140.657C79.733 140.245 79.0277 140.039 78.272 140.039C77.4785 140.039 76.7418 140.266 76.0617 140.719C75.3816 141.152 74.7896 141.78 74.2859 142.604C73.7821 143.407 73.3853 144.355 73.0957 145.447C72.8186 146.518 72.6801 147.702 72.6801 149C72.6801 150.298 72.8186 151.493 73.0957 152.584C73.3853 153.655 73.7821 154.603 74.2859 155.427C74.7896 156.23 75.3816 156.859 76.0617 157.312C76.7418 157.744 77.4785 157.961 78.272 157.961C79.0277 157.961 79.733 157.755 80.3879 157.343C81.0428 156.931 81.641 156.272 82.1826 155.365L83.0705 156.817C82.4911 157.868 81.7795 158.661 80.9357 159.197C80.0919 159.732 79.1851 160 78.2153 160Z" fill="#8AA95B"/>
<path d="M98.4234 138.185H99.8025V159.815H98.4234V138.185ZM90.1489 159.815H88.7509V138.185H90.1489V159.815ZM98.5557 149.834H89.9977V147.826H98.5557V149.834Z" fill="#8AA95B"/>
<path d="M126.405 138.185H127.784V159.815H126.405V138.185ZM118.131 159.815H116.733V138.185H118.131V159.815ZM126.538 149.834H117.98V147.826H126.538V149.834Z" fill="#8AA95B"/>
<path d="M140.128 160C138.441 160 137.112 159.207 136.142 157.621C135.173 156.035 134.688 153.686 134.688 150.576V138.185H136.086V150.483C136.086 153.037 136.438 154.922 137.144 156.138C137.849 157.353 138.844 157.961 140.128 157.961C141.426 157.961 142.427 157.353 143.132 156.138C143.838 154.922 144.19 153.037 144.19 150.483V138.185H145.55V150.576C145.55 153.686 145.065 156.035 144.096 157.621C143.139 159.207 141.816 160 140.128 160Z" fill="#8AA95B"/>
<path d="M152.463 159.815V138.185H153.616L162.74 156.972H162.136V138.185H163.515V159.815H162.363L153.257 141.028H153.861V159.815H152.463Z" fill="#8AA95B"/>
<path d="M170.531 159.815V138.185H175.916C177.326 138.185 178.56 138.649 179.618 139.576C180.689 140.482 181.52 141.749 182.112 143.376C182.704 145.004 183 146.878 183 149C183 151.122 182.704 152.996 182.112 154.624C181.52 156.251 180.689 157.528 179.618 158.455C178.56 159.361 177.326 159.815 175.916 159.815H170.531ZM171.929 157.837H175.84C177.011 157.837 178.025 157.466 178.882 156.725C179.751 155.963 180.424 154.922 180.903 153.604C181.382 152.265 181.621 150.73 181.621 149C181.621 147.249 181.382 145.714 180.903 144.396C180.424 143.078 179.751 142.048 178.882 141.306C178.025 140.544 177.011 140.163 175.84 140.163H171.929V157.837Z" fill="#8AA95B"/>
<path d="M1 159.815V138.185H2.15239L8.19773 155.056H7.59319L13.5819 138.185H14.7342V159.815H13.3929V141.615H13.7141L8.19773 157.065H7.53652L1.98237 141.615H2.34131V159.815H1Z" stroke="#8AA95B" mask="url(#path-16-outside-1_208_32)"/>
<path d="M23.9901 147.857H30.98V149.803H23.9901V147.857ZM24.1413 157.837H32.0946V159.815H22.7433V138.185H31.8113V140.163H24.1413V157.837Z" stroke="#8AA95B" mask="url(#path-16-outside-1_208_32)"/>
<path d="M39.081 159.815V138.185H40.2334L49.3581 156.972H48.7536V138.185H50.1326V159.815H48.9803L39.8745 141.028H40.479V159.815H39.081Z" stroke="#8AA95B" mask="url(#path-16-outside-1_208_32)"/>
<path d="M60.7953 160C59.8129 160 58.8683 159.743 57.9615 159.228C57.0673 158.692 56.3746 158.012 55.8835 157.188L56.4313 155.427C56.8973 156.169 57.5207 156.797 58.3016 157.312C59.095 157.806 59.9263 158.053 60.7953 158.053C61.6265 158.053 62.3003 157.889 62.8167 157.559C63.3457 157.209 63.7298 156.745 63.9691 156.169C64.221 155.592 64.3469 154.953 64.3469 154.253C64.3469 153.408 64.1958 152.728 63.8935 152.213C63.6039 151.699 63.2197 151.297 62.7411 151.008C62.2625 150.699 61.7336 150.432 61.1542 150.205C60.5749 149.978 59.9955 149.742 59.4162 149.494C58.8369 149.227 58.3016 148.876 57.8104 148.444C57.3318 148.011 56.9414 147.445 56.6391 146.744C56.3494 146.023 56.2046 145.086 56.2046 143.933C56.2046 142.861 56.3746 141.883 56.7147 140.997C57.0673 140.091 57.6026 139.37 58.3205 138.834C59.0384 138.278 59.9578 138 61.0787 138C61.8217 138 62.5585 138.175 63.289 138.525C64.0195 138.855 64.6492 139.318 65.1782 139.916L64.7059 141.739C64.1391 141.121 63.5346 140.668 62.8923 140.379C62.2625 140.091 61.6517 139.947 61.0598 139.947C60.2663 139.947 59.6114 140.122 59.095 140.472C58.5787 140.822 58.1945 141.296 57.9426 141.893C57.7034 142.47 57.5837 143.129 57.5837 143.871C57.5837 144.715 57.7285 145.395 58.0182 145.91C58.3205 146.425 58.7109 146.827 59.1895 147.115C59.6807 147.404 60.2159 147.661 60.7953 147.888C61.3746 148.114 61.9477 148.361 62.5144 148.629C63.0938 148.897 63.6227 149.247 64.1013 149.68C64.5925 150.092 64.9829 150.648 65.2726 151.348C65.5749 152.049 65.726 152.965 65.726 154.098C65.726 155.149 65.5497 156.127 65.197 157.034C64.8444 157.919 64.3028 158.64 63.5724 159.197C62.8545 159.732 61.9288 160 60.7953 160Z" stroke="#8AA95B" mask="url(#path-16-outside-1_208_32)"/>
<path d="M78.2153 160C77.2203 160 76.301 159.732 75.4571 159.197C74.6133 158.64 73.8828 157.868 73.2657 156.879C72.6486 155.89 72.1637 154.727 71.811 153.388C71.471 152.049 71.301 150.586 71.301 149C71.301 147.414 71.471 145.951 71.811 144.612C72.1637 143.273 72.6486 142.11 73.2657 141.121C73.8954 140.132 74.6322 139.37 75.476 138.834C76.3199 138.278 77.2392 138 78.2342 138C79.1914 138 80.0919 138.268 80.9357 138.803C81.7795 139.318 82.4911 140.101 83.0705 141.152L82.1826 142.604C81.641 141.698 81.0428 141.049 80.3879 140.657C79.733 140.245 79.0277 140.039 78.272 140.039C77.4785 140.039 76.7418 140.266 76.0617 140.719C75.3816 141.152 74.7896 141.78 74.2859 142.604C73.7821 143.407 73.3853 144.355 73.0957 145.447C72.8186 146.518 72.6801 147.702 72.6801 149C72.6801 150.298 72.8186 151.493 73.0957 152.584C73.3853 153.655 73.7821 154.603 74.2859 155.427C74.7896 156.23 75.3816 156.859 76.0617 157.312C76.7418 157.744 77.4785 157.961 78.272 157.961C79.0277 157.961 79.733 157.755 80.3879 157.343C81.0428 156.931 81.641 156.272 82.1826 155.365L83.0705 156.817C82.4911 157.868 81.7795 158.661 80.9357 159.197C80.0919 159.732 79.1851 160 78.2153 160Z" stroke="#8AA95B" mask="url(#path-16-outside-1_208_32)"/>
<path d="M98.4234 138.185H99.8025V159.815H98.4234V138.185ZM90.1489 159.815H88.7509V138.185H90.1489V159.815ZM98.5557 149.834H89.9977V147.826H98.5557V149.834Z" stroke="#8AA95B" mask="url(#path-16-outside-1_208_32)"/>
<path d="M126.405 138.185H127.784V159.815H126.405V138.185ZM118.131 159.815H116.733V138.185H118.131V159.815ZM126.538 149.834H117.98V147.826H126.538V149.834Z" stroke="#8AA95B" mask="url(#path-16-outside-1_208_32)"/>
<path d="M140.128 160C138.441 160 137.112 159.207 136.142 157.621C135.173 156.035 134.688 153.686 134.688 150.576V138.185H136.086V150.483C136.086 153.037 136.438 154.922 137.144 156.138C137.849 157.353 138.844 157.961 140.128 157.961C141.426 157.961 142.427 157.353 143.132 156.138C143.838 154.922 144.19 153.037 144.19 150.483V138.185H145.55V150.576C145.55 153.686 145.065 156.035 144.096 157.621C143.139 159.207 141.816 160 140.128 160Z" stroke="#8AA95B" mask="url(#path-16-outside-1_208_32)"/>
<path d="M152.463 159.815V138.185H153.616L162.74 156.972H162.136V138.185H163.515V159.815H162.363L153.257 141.028H153.861V159.815H152.463Z" stroke="#8AA95B" mask="url(#path-16-outside-1_208_32)"/>
<path d="M170.531 159.815V138.185H175.916C177.326 138.185 178.56 138.649 179.618 139.576C180.689 140.482 181.52 141.749 182.112 143.376C182.704 145.004 183 146.878 183 149C183 151.122 182.704 152.996 182.112 154.624C181.52 156.251 180.689 157.528 179.618 158.455C178.56 159.361 177.326 159.815 175.916 159.815H170.531ZM171.929 157.837H175.84C177.011 157.837 178.025 157.466 178.882 156.725C179.751 155.963 180.424 154.922 180.903 153.604C181.382 152.265 181.621 150.73 181.621 149C181.621 147.249 181.382 145.714 180.903 144.396C180.424 143.078 179.751 142.048 178.882 141.306C178.025 140.544 177.011 140.163 175.84 140.163H171.929V157.837Z" stroke="#8AA95B" mask="url(#path-16-outside-1_208_32)"/>
<circle cx="108" cy="149.187" r="1.5" fill="#8AA95B" stroke="#8AA95B"/>
</svg>
