<svg width="149" height="150" viewBox="0 0 149 150" fill="none" xmlns="http://www.w3.org/2000/svg">
<path d="M13.615 66.1658V90.9226H9.96045V66.1658H0V63.3125H23.5755V66.1658H13.615Z" fill="#2D4A00"/>
<path d="M50.8558 90.9226H47.2012V63.3125H50.8558V90.9226Z" fill="#2D4A00"/>
<path d="M99.5119 63.3125H102.928V90.9226H98.7476L81.5735 67.7603H81.4063C81.6293 70.5717 81.7407 73.0614 81.7407 75.2293V90.9226H78.3728V63.3125H82.5051L99.6313 86.3909H99.7985C99.5597 82.7683 99.4641 80.3555 99.5119 79.1527V63.3125Z" fill="#2D4A00"/>
<path d="M148 88.0483V90.9226H130.492V63.3125H148V66.1658H134.146V75.0615H147.164V77.8938H134.146V88.0483H148Z" fill="#2D4A00"/>
<path d="M10.4653 111.054C8.1616 111.054 6.34096 111.73 5.00334 113.083C3.67634 114.435 3.01284 116.3 3.01284 118.677C3.01284 121.046 3.65511 122.887 4.93965 124.202C6.22418 125.508 8.05544 126.16 10.4334 126.16C11.9197 126.16 13.5917 125.932 15.4495 125.475V127.349C13.9951 127.825 12.201 128.062 10.0672 128.062C6.97792 128.062 4.59463 127.242 2.9173 125.601C1.23997 123.941 0.401311 121.601 0.401311 118.579C0.390695 117.181 0.618939 115.894 1.08604 114.719C1.56376 113.535 2.23788 112.532 3.10839 111.712C3.9789 110.891 5.04581 110.257 6.30911 109.81C7.57241 109.353 8.96842 109.129 10.4971 109.138C12.7159 109.138 14.6374 109.493 16.2616 110.201L15.2265 112.034C13.666 111.381 12.0789 111.054 10.4653 111.054Z" fill="#8FB15C"/>
<path d="M21.85 125.587C20.1727 123.918 19.3341 121.582 19.3341 118.579C19.3341 115.568 20.1727 113.241 21.85 111.6C23.538 109.949 25.9053 109.124 28.9521 109.124C32.0095 109.124 34.3822 109.963 36.0702 111.642C37.7687 113.311 38.618 115.623 38.618 118.579C38.618 121.526 37.7687 123.843 36.0702 125.531C34.3716 127.219 31.9936 128.062 28.9362 128.062C25.8894 128.062 23.5274 127.237 21.85 125.587ZM34.2707 112.943C33.0924 111.665 31.3407 111.026 29.0158 111.026C26.7015 111.026 24.9393 111.67 23.7291 112.957C22.5188 114.243 21.9137 116.127 21.9137 118.607C21.9137 121.078 22.5188 122.962 23.7291 124.258C24.9393 125.545 26.7015 126.188 29.0158 126.188C31.3301 126.188 33.0765 125.55 34.2548 124.272C35.4438 122.985 36.0383 121.097 36.0383 118.607C36.0383 116.108 35.4491 114.22 34.2707 112.943Z" fill="#8FB15C"/>
<path d="M45.7282 120.034H52.4959L50.0595 114.327C49.7304 113.544 49.4066 112.658 49.0881 111.67C48.8971 112.434 48.5998 113.32 48.1964 114.327L45.7282 120.034ZM58.3878 127.811H55.8718L53.2602 121.964H44.8683L42.2886 127.811H39.8204L48.1009 109.334H50.155L58.3878 127.811Z" fill="#8FB15C"/>
<path d="M70.6621 111.054C68.3584 111.054 66.5378 111.73 65.2002 113.083C63.8732 114.435 63.2097 116.3 63.2097 118.677C63.2097 121.046 63.8519 122.887 65.1365 124.202C66.421 125.508 68.2523 126.16 70.6302 126.16C72.1165 126.16 73.7885 125.932 75.6463 125.475V127.349C74.1919 127.825 72.3978 128.062 70.264 128.062C67.1747 128.062 64.7914 127.242 63.1141 125.601C61.4368 123.941 60.5981 121.601 60.5981 118.579C60.5875 117.181 60.8158 115.894 61.2829 114.719C61.7606 113.535 62.4347 112.532 63.3052 111.712C64.1757 110.891 65.2426 110.257 66.5059 109.81C67.7692 109.353 69.1652 109.129 70.6939 109.138C72.9127 109.138 74.8342 109.493 76.4584 110.201L75.4234 112.034C73.8628 111.381 72.2757 111.054 70.6621 111.054Z" fill="#8FB15C"/>
<path d="M96.1221 109.404V127.811H93.6857V119.153H82.6504V127.811H80.2141V109.404H82.6504V117.237H93.6857V109.404H96.1221Z" fill="#8FB15C"/>
<path d="M104.305 127.811H101.869V109.404H104.305V127.811Z" fill="#8FB15C"/>
<path d="M124.143 109.404H126.421V127.811H123.634L112.184 112.369H112.073C112.222 114.243 112.296 115.903 112.296 117.349V127.811H110.051V109.404H112.806L124.223 124.79H124.334C124.175 122.374 124.112 120.766 124.143 119.964V109.404Z" fill="#8FB15C"/>
<path d="M141.417 120.076V118.174H148.535V127.125C147.389 127.442 146.242 127.676 145.096 127.825C143.949 127.983 142.638 128.062 141.163 128.062C137.978 128.062 135.504 127.237 133.742 125.587C131.98 123.927 131.099 121.601 131.099 118.607C131.077 116.705 131.507 115.036 132.389 113.6C133.28 112.155 134.554 111.045 136.21 110.271C137.866 109.488 139.788 109.11 141.975 109.138C144.215 109.138 146.296 109.502 148.217 110.229L147.277 112.117C145.398 111.409 143.578 111.054 141.816 111.054C139.257 111.054 137.261 111.721 135.828 113.055C134.395 114.388 133.678 116.272 133.678 118.705C133.678 121.13 134.368 122.985 135.749 124.272C137.139 125.55 139.172 126.188 141.847 126.188C143.27 126.188 144.687 126.039 146.099 125.741V120.076H141.417Z" fill="#8FB15C"/>
<path d="M9.25 148.875H138.75" stroke="#90739A"/>
<line x1="10" y1="37.9592" x2="44.6875" y2="37.9592" stroke="#90739A"/>
<line x1="104" y1="37.9592" x2="138.688" y2="37.9592" stroke="#90739A"/>
<path d="M58.1277 47.8997C57.6757 50.8893 63.1917 50.9624 63.6462 48.2357C64.3096 44.2554 63.6458 45.4391 63.6462 43.592C63.6465 42.5156 63.9511 40.6683 62.9828 39.6117C61.7938 38.3142 59.764 38.8743 58.3391 38.9483C57.2426 39.0053 54.2724 40.0278 53.6954 40.2751C51.7052 41.222 52.8452 45.5907 54.6816 45.5907C55.0223 45.5907 57.2237 45.1597 57.6757 45.5822C58.3542 46.2163 58.1277 47.8997 58.1277 47.8997Z" fill="#8FB15C" stroke="#8FB15C" stroke-width="1.25"/>
<ellipse cx="59.1179" cy="34.7885" rx="1.29095" ry="2.12009" transform="rotate(26.6882 59.1179 34.7885)" fill="#8FB15C" stroke="#8FB15C" stroke-width="1.25"/>
<ellipse cx="68.7941" cy="44.0211" rx="1.36292" ry="2.12009" transform="rotate(49.0181 68.7941 44.0211)" fill="#8FB15C" stroke="#8FB15C" stroke-width="1.25"/>
<ellipse cx="65.0317" cy="33.8909" rx="1.57268" ry="2.44639" transform="rotate(36.0902 65.0317 33.8909)" fill="#8FB15C" stroke="#8FB15C" stroke-width="1.25"/>
<ellipse cx="68.3418" cy="38.1005" rx="1.8236" ry="2.83671" transform="rotate(44.5224 68.3418 38.1005)" fill="#8FB15C" stroke="#8FB15C" stroke-width="1.25"/>
<path d="M82.5834 53.0558C75.9765 52.3424 74.8405 46.5421 76.0061 43.1254C76.3175 42.564 77.1429 39.2873 75.3358 33.2908C73.0769 25.7951 70.355 21.7639 70.2113 19.6565C70.0198 16.8466 71.1625 16.0255 72.0315 15.5853C72.9005 15.1451 75.1035 14.7375 76.5736 15.5453C79.4793 17.1417 81.0155 18.5233 84.4924 18.8818C87.832 19.2262 88.6775 19.8837 88.9593 21.8564C89.241 23.8292 86.7047 27.117 85.9533 28.62C84.5812 31.3643 82.7767 35.213 82.9472 37.6381C83.1848 42.4966 86.7047 42.8986 87.832 45.5288C88.9592 48.1591 85.9532 53.4196 82.5834 53.0558Z" fill="#90739A" stroke="#90739A" stroke-width="1.25" stroke-linecap="round" stroke-linejoin="round"/>
<ellipse cx="70.6911" cy="9.22195" rx="2.64083" ry="3.99985" transform="rotate(-1.42227 70.6911 9.22195)" fill="#90739A" stroke="#90739A" stroke-width="1.25" stroke-linecap="round" stroke-linejoin="round"/>
<ellipse cx="76.6326" cy="10.6288" rx="1.34522" ry="2.11549" transform="rotate(-3.34302 76.6326 10.6288)" fill="#90739A" stroke="#90739A" stroke-width="1.25" stroke-linecap="round" stroke-linejoin="round"/>
<ellipse cx="80.583" cy="12.0779" rx="1.08299" ry="1.81348" transform="rotate(0.708565 80.583 12.0779)" fill="#90739A" stroke="#90739A" stroke-width="1.25" stroke-linecap="round" stroke-linejoin="round"/>
<path d="M85.0875 14.4188C85.0371 15.3643 84.5923 16.0435 84.0489 16.0146C83.5055 15.9856 83.1058 15.1956 83.1562 14.2502C83.2067 13.3047 83.6881 12.5617 84.2315 12.5907C84.775 12.6197 85.1379 13.4734 85.0875 14.4188Z" fill="#90739A" stroke="#90739A" stroke-width="1.25" stroke-linecap="round" stroke-linejoin="round"/>
<ellipse cx="87.0811" cy="16.1579" rx="0.952596" ry="1.39458" transform="rotate(-3.34302 87.0811 16.1579)" fill="#90739A" stroke="#90739A" stroke-width="1.25" stroke-linecap="round" stroke-linejoin="round"/>
</svg>
