<svg width="184" height="178" viewBox="0 0 184 178" fill="none" xmlns="http://www.w3.org/2000/svg">
<path d="M1 177.187L182 177.187" stroke="#90739A"/>
<line x1="1" y1="50.6869" x2="58" y2="50.6869" stroke="#90739A"/>
<line x1="125" y1="50.6869" x2="182" y2="50.6869" stroke="#90739A"/>
<path d="M78.7105 66.7809C78.6018 71.0697 86.3807 70.199 86.5393 66.2799C86.7708 60.559 86.0451 62.3427 85.7197 59.7421C85.5301 58.2265 85.6329 55.572 84.0831 54.2553C82.1801 52.6384 79.4213 53.7853 77.4282 54.141C75.8945 54.4147 71.8933 56.3786 71.1246 56.8286C68.4897 58.5131 70.8658 64.4625 73.4512 64.1384C73.9308 64.0782 76.9542 63.0828 77.6651 63.5979C78.7322 64.371 78.7105 66.7809 78.7105 66.7809Z" fill="#8AA95B"/>
<path d="M79.5167 48.7596C78.961 50.3253 77.7376 51.3202 76.7842 50.9818C75.8308 50.6434 75.5085 49.0999 76.0642 47.5342C76.62 45.9685 77.8434 44.9736 78.7967 45.312C79.7501 45.6504 80.0724 47.1939 79.5167 48.7596Z" fill="#8AA95B"/>
<path d="M94.4831 60.7284C93.3741 61.9655 91.8305 62.3905 91.0352 61.6776C90.2399 60.9647 90.4941 59.3839 91.603 58.1468C92.712 56.9096 94.2557 56.4847 95.051 57.1976C95.8463 57.9104 95.592 59.4912 94.4831 60.7284Z" fill="#8AA95B"/>
<path d="M87.9107 46.9194C86.9829 48.5971 85.3565 49.4736 84.278 48.8771C83.1996 48.2807 83.0774 46.4372 84.0052 44.7595C84.933 43.0819 86.5594 42.2054 87.6379 42.8019C88.7164 43.3983 88.8385 45.2418 87.9107 46.9194Z" fill="#8AA95B"/>
<path d="M93.4175 52.7527C92.068 54.5192 90.0534 55.248 88.9178 54.3805C87.7822 53.513 87.9556 51.3777 89.305 49.6111C90.6545 47.8446 92.669 47.1158 93.8047 47.9834C94.9403 48.8509 94.7669 50.9862 93.4175 52.7527Z" fill="#8AA95B"/>
<path d="M78.7105 66.7809C78.6018 71.0697 86.3807 70.199 86.5393 66.2799C86.7708 60.559 86.0451 62.3427 85.7197 59.7421C85.5301 58.2265 85.6329 55.572 84.0831 54.2553C82.1801 52.6384 79.4213 53.7853 77.4282 54.141C75.8945 54.4147 71.8933 56.3786 71.1246 56.8286C68.4897 58.5131 70.8658 64.4625 73.4512 64.1384C73.9308 64.0782 76.9542 63.0828 77.6651 63.5979C78.7322 64.371 78.7105 66.7809 78.7105 66.7809Z" stroke="#8AA95B" stroke-width="1.25"/>
<path d="M79.5167 48.7596C78.961 50.3253 77.7376 51.3202 76.7842 50.9818C75.8308 50.6434 75.5085 49.0999 76.0642 47.5342C76.62 45.9685 77.8434 44.9736 78.7967 45.312C79.7501 45.6504 80.0724 47.1939 79.5167 48.7596Z" stroke="#8AA95B" stroke-width="1.25"/>
<path d="M94.4831 60.7284C93.3741 61.9655 91.8305 62.3905 91.0352 61.6776C90.2399 60.9647 90.4941 59.3839 91.603 58.1468C92.712 56.9096 94.2557 56.4847 95.051 57.1976C95.8463 57.9104 95.592 59.4912 94.4831 60.7284Z" stroke="#8AA95B" stroke-width="1.25"/>
<path d="M87.9107 46.9194C86.9829 48.5971 85.3565 49.4736 84.278 48.8771C83.1996 48.2807 83.0774 46.4372 84.0052 44.7595C84.933 43.0819 86.5594 42.2054 87.6379 42.8019C88.7164 43.3983 88.8385 45.2418 87.9107 46.9194Z" stroke="#8AA95B" stroke-width="1.25"/>
<path d="M93.4175 52.7527C92.068 54.5192 90.0534 55.248 88.9178 54.3805C87.7822 53.513 87.9556 51.3777 89.305 49.6111C90.6545 47.8446 92.669 47.1158 93.8047 47.9834C94.9403 48.8509 94.7669 50.9862 93.4175 52.7527Z" stroke="#8AA95B" stroke-width="1.25"/>
<path d="M114.052 69.7236C104.624 69.8854 102.001 61.9196 103.039 56.9036C103.378 56.0582 103.962 51.2993 100.359 43.1758C95.8559 33.0214 91.3122 27.8263 90.738 24.8847C89.9724 20.9624 91.4362 19.6047 92.582 18.8315C93.7278 18.0584 96.7574 17.0957 98.9698 17.9735C103.342 19.7082 105.749 21.3822 110.707 21.2733C115.47 21.1686 116.776 21.9451 117.521 24.6728C118.266 27.4005 115.276 32.4771 114.483 34.7257C113.036 38.8316 111.174 44.5688 111.843 47.9528C113.035 54.7512 118.061 54.6959 120.113 58.2C122.164 61.7042 118.86 69.6411 114.052 69.7236Z" fill="#90739A"/>
<path d="M93.277 9.55095C93.744 12.6504 92.4636 15.413 90.4172 15.7213C88.3709 16.0296 86.3334 13.7669 85.8664 10.6675C85.3994 7.56799 86.6798 4.80543 88.7262 4.49711C90.7725 4.18879 92.81 6.45147 93.277 9.55095Z" fill="#90739A"/>
<path d="M100.062 10.6938C100.364 12.3239 99.768 13.8009 98.7315 13.9928C97.6949 14.1847 96.61 13.0188 96.3082 11.3887C96.0064 9.75865 96.602 8.28163 97.6386 8.08973C98.6752 7.89782 99.7601 9.0637 100.062 10.6938Z" fill="#90739A"/>
<path d="M105.53 12.2118C105.689 13.624 105.134 14.8459 104.291 14.9411C103.448 15.0362 102.635 13.9686 102.476 12.5564C102.316 11.1442 102.871 9.92231 103.714 9.82716C104.557 9.73201 105.37 10.7997 105.53 12.2118Z" fill="#90739A"/>
<path d="M110.758 14.8848C110.853 16.2249 110.347 17.2597 109.577 17.3148C108.807 17.3699 108.105 16.3283 108.009 14.9882C107.913 13.6482 108.46 12.5173 109.23 12.4621C110 12.407 110.662 13.5448 110.758 14.8848Z" fill="#90739A"/>
<path d="M115.2 16.7353C115.399 17.8099 114.966 18.7912 114.232 18.9271C113.498 19.063 112.741 18.302 112.542 17.2274C112.343 16.1528 112.777 15.1715 113.511 15.0356C114.245 14.8997 115.001 15.6607 115.2 16.7353Z" fill="#90739A"/>
<path d="M114.052 69.7236C104.624 69.8854 102.001 61.9196 103.039 56.9036C103.378 56.0582 103.962 51.2993 100.359 43.1758C95.8559 33.0214 91.3122 27.8263 90.738 24.8847C89.9724 20.9624 91.4362 19.6047 92.582 18.8315C93.7278 18.0584 96.7574 17.0957 98.9698 17.9735C103.342 19.7082 105.749 21.3822 110.707 21.2733C115.47 21.1686 116.776 21.9451 117.521 24.6728C118.266 27.4005 115.276 32.4771 114.483 34.7257C113.036 38.8316 111.174 44.5688 111.843 47.9528C113.035 54.7512 118.061 54.6959 120.113 58.2C122.164 61.7042 118.86 69.6411 114.052 69.7236Z" stroke="#90739A" stroke-width="1.25" stroke-linecap="round" stroke-linejoin="round"/>
<path d="M93.277 9.55095C93.744 12.6504 92.4636 15.413 90.4172 15.7213C88.3709 16.0296 86.3334 13.7669 85.8664 10.6675C85.3994 7.56799 86.6798 4.80543 88.7262 4.49711C90.7725 4.18879 92.81 6.45147 93.277 9.55095Z" stroke="#90739A" stroke-width="1.25" stroke-linecap="round" stroke-linejoin="round"/>
<path d="M100.062 10.6938C100.364 12.3239 99.768 13.8009 98.7315 13.9928C97.6949 14.1847 96.61 13.0188 96.3082 11.3887C96.0064 9.75865 96.602 8.28163 97.6386 8.08973C98.6752 7.89782 99.7601 9.0637 100.062 10.6938Z" stroke="#90739A" stroke-width="1.25" stroke-linecap="round" stroke-linejoin="round"/>
<path d="M105.53 12.2118C105.689 13.624 105.134 14.8459 104.291 14.9411C103.448 15.0362 102.635 13.9686 102.476 12.5564C102.316 11.1442 102.871 9.92231 103.714 9.82716C104.557 9.73201 105.37 10.7997 105.53 12.2118Z" stroke="#90739A" stroke-width="1.25" stroke-linecap="round" stroke-linejoin="round"/>
<path d="M110.758 14.8848C110.853 16.2249 110.347 17.2597 109.577 17.3148C108.807 17.3699 108.105 16.3283 108.009 14.9882C107.913 13.6482 108.46 12.5173 109.23 12.4621C110 12.407 110.662 13.5448 110.758 14.8848Z" stroke="#90739A" stroke-width="1.25" stroke-linecap="round" stroke-linejoin="round"/>
<path d="M115.2 16.7353C115.399 17.8099 114.966 18.7912 114.232 18.9271C113.498 19.063 112.741 18.302 112.542 17.2274C112.343 16.1528 112.777 15.1715 113.511 15.0356C114.245 14.8997 115.001 15.6607 115.2 16.7353Z" stroke="#90739A" stroke-width="1.25" stroke-linecap="round" stroke-linejoin="round"/>
<path d="M11.8002 112.187V84.9297H1V82.1869H25.8493V84.9297H15.049V112.187H11.8002Z" fill="#2D4A00"/>
<path d="M55.0635 95.6012H71.3077V98.3012H55.0635V95.6012ZM55.4148 109.444H73.898V112.187H52.1659V82.1869H73.2395V84.9297H55.4148V109.444Z" fill="#2D4A00"/>
<path d="M95.6565 112.187L109.706 82.1869H112.911L126.96 112.187H123.535L110.628 84.0297H111.945L99.0371 112.187H95.6565ZM101.188 104.173L102.154 101.601H120.023L120.989 104.173H101.188Z" fill="#2D4A00"/>
<path d="M150.082 112.187V82.1869H152.76L166.809 105.587H165.405L179.322 82.1869H182V112.187H178.883V86.944H179.629L166.809 108.373H165.273L152.365 86.944H153.199V112.187H150.082Z" fill="#2D4A00"/>
<mask id="path-7-outside-1_208_32" maskUnits="userSpaceOnUse" x="0" y="128" width="184" height="24" fill="black">
<rect fill="white" y="128" width="184" height="24"/>
<path d="M1 150.815V129.185H2.15239L8.19773 146.056H7.59319L13.5819 129.185H14.7342V150.815H13.3929V132.615H13.7141L8.19773 148.065H7.53652L1.98237 132.615H2.34131V150.815H1Z"/>
<path d="M23.9901 138.857H30.98V140.803H23.9901V138.857ZM24.1413 148.837H32.0946V150.815H22.7433V129.185H31.8113V131.163H24.1413V148.837Z"/>
<path d="M39.081 150.815V129.185H40.2334L49.3581 147.972H48.7536V129.185H50.1326V150.815H48.9803L39.8745 132.028H40.479V150.815H39.081Z"/>
<path d="M60.7953 151C59.8129 151 58.8683 150.743 57.9615 150.228C57.0673 149.692 56.3746 149.012 55.8835 148.188L56.4313 146.427C56.8973 147.169 57.5207 147.797 58.3016 148.312C59.095 148.806 59.9263 149.053 60.7953 149.053C61.6265 149.053 62.3003 148.889 62.8167 148.559C63.3457 148.209 63.7298 147.745 63.9691 147.169C64.221 146.592 64.3469 145.953 64.3469 145.253C64.3469 144.408 64.1958 143.728 63.8935 143.213C63.6039 142.699 63.2197 142.297 62.7411 142.008C62.2625 141.699 61.7336 141.432 61.1542 141.205C60.5749 140.978 59.9955 140.742 59.4162 140.494C58.8368 140.227 58.3016 139.876 57.8104 139.444C57.3318 139.011 56.9414 138.445 56.6391 137.744C56.3494 137.023 56.2046 136.086 56.2046 134.933C56.2046 133.861 56.3746 132.883 56.7147 131.997C57.0673 131.091 57.6026 130.37 58.3205 129.834C59.0384 129.278 59.9578 129 61.0787 129C61.8217 129 62.5585 129.175 63.289 129.525C64.0195 129.855 64.6492 130.318 65.1782 130.916L64.7059 132.739C64.1391 132.121 63.5346 131.668 62.8923 131.379C62.2625 131.091 61.6517 130.947 61.0598 130.947C60.2663 130.947 59.6114 131.122 59.095 131.472C58.5787 131.822 58.1945 132.296 57.9426 132.893C57.7034 133.47 57.5837 134.129 57.5837 134.871C57.5837 135.715 57.7285 136.395 58.0182 136.91C58.3205 137.425 58.7109 137.827 59.1895 138.115C59.6807 138.404 60.2159 138.661 60.7953 138.888C61.3746 139.114 61.9477 139.361 62.5144 139.629C63.0938 139.897 63.6227 140.247 64.1013 140.68C64.5925 141.092 64.9829 141.648 65.2726 142.348C65.5749 143.049 65.726 143.965 65.726 145.098C65.726 146.149 65.5497 147.127 65.197 148.034C64.8444 148.919 64.3028 149.64 63.5724 150.197C62.8545 150.732 61.9288 151 60.7953 151Z"/>
<path d="M78.2153 151C77.2203 151 76.301 150.732 75.4571 150.197C74.6133 149.64 73.8828 148.868 73.2657 147.879C72.6486 146.89 72.1637 145.727 71.811 144.388C71.471 143.049 71.301 141.586 71.301 140C71.301 138.414 71.471 136.951 71.811 135.612C72.1637 134.273 72.6486 133.11 73.2657 132.121C73.8954 131.132 74.6322 130.37 75.476 129.834C76.3199 129.278 77.2392 129 78.2342 129C79.1914 129 80.0919 129.268 80.9357 129.803C81.7795 130.318 82.4911 131.101 83.0705 132.152L82.1826 133.604C81.641 132.698 81.0428 132.049 80.3879 131.657C79.7329 131.245 79.0277 131.039 78.272 131.039C77.4785 131.039 76.7418 131.266 76.0617 131.719C75.3816 132.152 74.7896 132.78 74.2859 133.604C73.7821 134.407 73.3853 135.355 73.0957 136.447C72.8186 137.518 72.6801 138.702 72.6801 140C72.6801 141.298 72.8186 142.493 73.0957 143.584C73.3853 144.655 73.7821 145.603 74.2859 146.427C74.7896 147.23 75.3816 147.859 76.0617 148.312C76.7418 148.744 77.4785 148.961 78.272 148.961C79.0277 148.961 79.7329 148.755 80.3879 148.343C81.0428 147.931 81.641 147.272 82.1826 146.365L83.0705 147.817C82.4911 148.868 81.7795 149.661 80.9357 150.197C80.0919 150.732 79.1851 151 78.2153 151Z"/>
<path d="M98.4234 129.185H99.8025V150.815H98.4234V129.185ZM90.1489 150.815H88.7509V129.185H90.1489V150.815ZM98.5557 140.834H89.9977V138.826H98.5557V140.834Z"/>
<path d="M126.405 129.185H127.784V150.815H126.405V129.185ZM118.131 150.815H116.733V129.185H118.131V150.815ZM126.538 140.834H117.98V138.826H126.538V140.834Z"/>
<path d="M140.128 151C138.441 151 137.112 150.207 136.142 148.621C135.173 147.035 134.688 144.686 134.688 141.576V129.185H136.086V141.483C136.086 144.037 136.438 145.922 137.144 147.138C137.849 148.353 138.844 148.961 140.128 148.961C141.426 148.961 142.427 148.353 143.132 147.138C143.838 145.922 144.19 144.037 144.19 141.483V129.185H145.55V141.576C145.55 144.686 145.065 147.035 144.096 148.621C143.139 150.207 141.816 151 140.128 151Z"/>
<path d="M152.463 150.815V129.185H153.616L162.74 147.972H162.136V129.185H163.515V150.815H162.363L153.257 132.028H153.861V150.815H152.463Z"/>
<path d="M170.531 150.815V129.185H175.916C177.326 129.185 178.56 129.649 179.618 130.576C180.689 131.482 181.52 132.749 182.112 134.376C182.704 136.004 183 137.878 183 140C183 142.122 182.704 143.996 182.112 145.624C181.52 147.251 180.689 148.528 179.618 149.455C178.56 150.361 177.326 150.815 175.916 150.815H170.531ZM171.929 148.837H175.84C177.011 148.837 178.025 148.466 178.882 147.725C179.751 146.963 180.424 145.922 180.903 144.604C181.382 143.265 181.621 141.73 181.621 140C181.621 138.249 181.382 136.714 180.903 135.396C180.424 134.078 179.751 133.048 178.882 132.306C178.025 131.544 177.011 131.163 175.84 131.163H171.929V148.837Z"/>
</mask>
<path d="M1 150.815V129.185H2.15239L8.19773 146.056H7.59319L13.5819 129.185H14.7342V150.815H13.3929V132.615H13.7141L8.19773 148.065H7.53652L1.98237 132.615H2.34131V150.815H1Z" fill="#8AA95B"/>
<path d="M23.9901 138.857H30.98V140.803H23.9901V138.857ZM24.1413 148.837H32.0946V150.815H22.7433V129.185H31.8113V131.163H24.1413V148.837Z" fill="#8AA95B"/>
<path d="M39.081 150.815V129.185H40.2334L49.3581 147.972H48.7536V129.185H50.1326V150.815H48.9803L39.8745 132.028H40.479V150.815H39.081Z" fill="#8AA95B"/>
<path d="M60.7953 151C59.8129 151 58.8683 150.743 57.9615 150.228C57.0673 149.692 56.3746 149.012 55.8835 148.188L56.4313 146.427C56.8973 147.169 57.5207 147.797 58.3016 148.312C59.095 148.806 59.9263 149.053 60.7953 149.053C61.6265 149.053 62.3003 148.889 62.8167 148.559C63.3457 148.209 63.7298 147.745 63.9691 147.169C64.221 146.592 64.3469 145.953 64.3469 145.253C64.3469 144.408 64.1958 143.728 63.8935 143.213C63.6039 142.699 63.2197 142.297 62.7411 142.008C62.2625 141.699 61.7336 141.432 61.1542 141.205C60.5749 140.978 59.9955 140.742 59.4162 140.494C58.8368 140.227 58.3016 139.876 57.8104 139.444C57.3318 139.011 56.9414 138.445 56.6391 137.744C56.3494 137.023 56.2046 136.086 56.2046 134.933C56.2046 133.861 56.3746 132.883 56.7147 131.997C57.0673 131.091 57.6026 130.37 58.3205 129.834C59.0384 129.278 59.9578 129 61.0787 129C61.8217 129 62.5585 129.175 63.289 129.525C64.0195 129.855 64.6492 130.318 65.1782 130.916L64.7059 132.739C64.1391 132.121 63.5346 131.668 62.8923 131.379C62.2625 131.091 61.6517 130.947 61.0598 130.947C60.2663 130.947 59.6114 131.122 59.095 131.472C58.5787 131.822 58.1945 132.296 57.9426 132.893C57.7034 133.47 57.5837 134.129 57.5837 134.871C57.5837 135.715 57.7285 136.395 58.0182 136.91C58.3205 137.425 58.7109 137.827 59.1895 138.115C59.6807 138.404 60.2159 138.661 60.7953 138.888C61.3746 139.114 61.9477 139.361 62.5144 139.629C63.0938 139.897 63.6227 140.247 64.1013 140.68C64.5925 141.092 64.9829 141.648 65.2726 142.348C65.5749 143.049 65.726 143.965 65.726 145.098C65.726 146.149 65.5497 147.127 65.197 148.034C64.8444 148.919 64.3028 149.64 63.5724 150.197C62.8545 150.732 61.9288 151 60.7953 151Z" fill="#8AA95B"/>
<path d="M78.2153 151C77.2203 151 76.301 150.732 75.4571 150.197C74.6133 149.64 73.8828 148.868 73.2657 147.879C72.6486 146.89 72.1637 145.727 71.811 144.388C71.471 143.049 71.301 141.586 71.301 140C71.301 138.414 71.471 136.951 71.811 135.612C72.1637 134.273 72.6486 133.11 73.2657 132.121C73.8954 131.132 74.6322 130.37 75.476 129.834C76.3199 129.278 77.2392 129 78.2342 129C79.1914 129 80.0919 129.268 80.9357 129.803C81.7795 130.318 82.4911 131.101 83.0705 132.152L82.1826 133.604C81.641 132.698 81.0428 132.049 80.3879 131.657C79.7329 131.245 79.0277 131.039 78.272 131.039C77.4785 131.039 76.7418 131.266 76.0617 131.719C75.3816 132.152 74.7896 132.78 74.2859 133.604C73.7821 134.407 73.3853 135.355 73.0957 136.447C72.8186 137.518 72.6801 138.702 72.6801 140C72.6801 141.298 72.8186 142.493 73.0957 143.584C73.3853 144.655 73.7821 145.603 74.2859 146.427C74.7896 147.23 75.3816 147.859 76.0617 148.312C76.7418 148.744 77.4785 148.961 78.272 148.961C79.0277 148.961 79.7329 148.755 80.3879 148.343C81.0428 147.931 81.641 147.272 82.1826 146.365L83.0705 147.817C82.4911 148.868 81.7795 149.661 80.9357 150.197C80.0919 150.732 79.1851 151 78.2153 151Z" fill="#8AA95B"/>
<path d="M98.4234 129.185H99.8025V150.815H98.4234V129.185ZM90.1489 150.815H88.7509V129.185H90.1489V150.815ZM98.5557 140.834H89.9977V138.826H98.5557V140.834Z" fill="#8AA95B"/>
<path d="M126.405 129.185H127.784V150.815H126.405V129.185ZM118.131 150.815H116.733V129.185H118.131V150.815ZM126.538 140.834H117.98V138.826H126.538V140.834Z" fill="#8AA95B"/>
<path d="M140.128 151C138.441 151 137.112 150.207 136.142 148.621C135.173 147.035 134.688 144.686 134.688 141.576V129.185H136.086V141.483C136.086 144.037 136.438 145.922 137.144 147.138C137.849 148.353 138.844 148.961 140.128 148.961C141.426 148.961 142.427 148.353 143.132 147.138C143.838 145.922 144.19 144.037 144.19 141.483V129.185H145.55V141.576C145.55 144.686 145.065 147.035 144.096 148.621C143.139 150.207 141.816 151 140.128 151Z" fill="#8AA95B"/>
<path d="M152.463 150.815V129.185H153.616L162.74 147.972H162.136V129.185H163.515V150.815H162.363L153.257 132.028H153.861V150.815H152.463Z" fill="#8AA95B"/>
<path d="M170.531 150.815V129.185H175.916C177.326 129.185 178.56 129.649 179.618 130.576C180.689 131.482 181.52 132.749 182.112 134.376C182.704 136.004 183 137.878 183 140C183 142.122 182.704 143.996 182.112 145.624C181.52 147.251 180.689 148.528 179.618 149.455C178.56 150.361 177.326 150.815 175.916 150.815H170.531ZM171.929 148.837H175.84C177.011 148.837 178.025 148.466 178.882 147.725C179.751 146.963 180.424 145.922 180.903 144.604C181.382 143.265 181.621 141.73 181.621 140C181.621 138.249 181.382 136.714 180.903 135.396C180.424 134.078 179.751 133.048 178.882 132.306C178.025 131.544 177.011 131.163 175.84 131.163H171.929V148.837Z" fill="#8AA95B"/>
<path d="M1 150.815V129.185H2.15239L8.19773 146.056H7.59319L13.5819 129.185H14.7342V150.815H13.3929V132.615H13.7141L8.19773 148.065H7.53652L1.98237 132.615H2.34131V150.815H1Z" stroke="#8AA95B" mask="url(#path-7-outside-1_208_32)"/>
<path d="M23.9901 138.857H30.98V140.803H23.9901V138.857ZM24.1413 148.837H32.0946V150.815H22.7433V129.185H31.8113V131.163H24.1413V148.837Z" stroke="#8AA95B" mask="url(#path-7-outside-1_208_32)"/>
<path d="M39.081 150.815V129.185H40.2334L49.3581 147.972H48.7536V129.185H50.1326V150.815H48.9803L39.8745 132.028H40.479V150.815H39.081Z" stroke="#8AA95B" mask="url(#path-7-outside-1_208_32)"/>
<path d="M60.7953 151C59.8129 151 58.8683 150.743 57.9615 150.228C57.0673 149.692 56.3746 149.012 55.8835 148.188L56.4313 146.427C56.8973 147.169 57.5207 147.797 58.3016 148.312C59.095 148.806 59.9263 149.053 60.7953 149.053C61.6265 149.053 62.3003 148.889 62.8167 148.559C63.3457 148.209 63.7298 147.745 63.9691 147.169C64.221 146.592 64.3469 145.953 64.3469 145.253C64.3469 144.408 64.1958 143.728 63.8935 143.213C63.6039 142.699 63.2197 142.297 62.7411 142.008C62.2625 141.699 61.7336 141.432 61.1542 141.205C60.5749 140.978 59.9955 140.742 59.4162 140.494C58.8368 140.227 58.3016 139.876 57.8104 139.444C57.3318 139.011 56.9414 138.445 56.6391 137.744C56.3494 137.023 56.2046 136.086 56.2046 134.933C56.2046 133.861 56.3746 132.883 56.7147 131.997C57.0673 131.091 57.6026 130.37 58.3205 129.834C59.0384 129.278 59.9578 129 61.0787 129C61.8217 129 62.5585 129.175 63.289 129.525C64.0195 129.855 64.6492 130.318 65.1782 130.916L64.7059 132.739C64.1391 132.121 63.5346 131.668 62.8923 131.379C62.2625 131.091 61.6517 130.947 61.0598 130.947C60.2663 130.947 59.6114 131.122 59.095 131.472C58.5787 131.822 58.1945 132.296 57.9426 132.893C57.7034 133.47 57.5837 134.129 57.5837 134.871C57.5837 135.715 57.7285 136.395 58.0182 136.91C58.3205 137.425 58.7109 137.827 59.1895 138.115C59.6807 138.404 60.2159 138.661 60.7953 138.888C61.3746 139.114 61.9477 139.361 62.5144 139.629C63.0938 139.897 63.6227 140.247 64.1013 140.68C64.5925 141.092 64.9829 141.648 65.2726 142.348C65.5749 143.049 65.726 143.965 65.726 145.098C65.726 146.149 65.5497 147.127 65.197 148.034C64.8444 148.919 64.3028 149.64 63.5724 150.197C62.8545 150.732 61.9288 151 60.7953 151Z" stroke="#8AA95B" mask="url(#path-7-outside-1_208_32)"/>
<path d="M78.2153 151C77.2203 151 76.301 150.732 75.4571 150.197C74.6133 149.64 73.8828 148.868 73.2657 147.879C72.6486 146.89 72.1637 145.727 71.811 144.388C71.471 143.049 71.301 141.586 71.301 140C71.301 138.414 71.471 136.951 71.811 135.612C72.1637 134.273 72.6486 133.11 73.2657 132.121C73.8954 131.132 74.6322 130.37 75.476 129.834C76.3199 129.278 77.2392 129 78.2342 129C79.1914 129 80.0919 129.268 80.9357 129.803C81.7795 130.318 82.4911 131.101 83.0705 132.152L82.1826 133.604C81.641 132.698 81.0428 132.049 80.3879 131.657C79.7329 131.245 79.0277 131.039 78.272 131.039C77.4785 131.039 76.7418 131.266 76.0617 131.719C75.3816 132.152 74.7896 132.78 74.2859 133.604C73.7821 134.407 73.3853 135.355 73.0957 136.447C72.8186 137.518 72.6801 138.702 72.6801 140C72.6801 141.298 72.8186 142.493 73.0957 143.584C73.3853 144.655 73.7821 145.603 74.2859 146.427C74.7896 147.23 75.3816 147.859 76.0617 148.312C76.7418 148.744 77.4785 148.961 78.272 148.961C79.0277 148.961 79.7329 148.755 80.3879 148.343C81.0428 147.931 81.641 147.272 82.1826 146.365L83.0705 147.817C82.4911 148.868 81.7795 149.661 80.9357 150.197C80.0919 150.732 79.1851 151 78.2153 151Z" stroke="#8AA95B" mask="url(#path-7-outside-1_208_32)"/>
<path d="M98.4234 129.185H99.8025V150.815H98.4234V129.185ZM90.1489 150.815H88.7509V129.185H90.1489V150.815ZM98.5557 140.834H89.9977V138.826H98.5557V140.834Z" stroke="#8AA95B" mask="url(#path-7-outside-1_208_32)"/>
<path d="M126.405 129.185H127.784V150.815H126.405V129.185ZM118.131 150.815H116.733V129.185H118.131V150.815ZM126.538 140.834H117.98V138.826H126.538V140.834Z" stroke="#8AA95B" mask="url(#path-7-outside-1_208_32)"/>
<path d="M140.128 151C138.441 151 137.112 150.207 136.142 148.621C135.173 147.035 134.688 144.686 134.688 141.576V129.185H136.086V141.483C136.086 144.037 136.438 145.922 137.144 147.138C137.849 148.353 138.844 148.961 140.128 148.961C141.426 148.961 142.427 148.353 143.132 147.138C143.838 145.922 144.19 144.037 144.19 141.483V129.185H145.55V141.576C145.55 144.686 145.065 147.035 144.096 148.621C143.139 150.207 141.816 151 140.128 151Z" stroke="#8AA95B" mask="url(#path-7-outside-1_208_32)"/>
<path d="M152.463 150.815V129.185H153.616L162.74 147.972H162.136V129.185H163.515V150.815H162.363L153.257 132.028H153.861V150.815H152.463Z" stroke="#8AA95B" mask="url(#path-7-outside-1_208_32)"/>
<path d="M170.531 150.815V129.185H175.916C177.326 129.185 178.56 129.649 179.618 130.576C180.689 131.482 181.52 132.749 182.112 134.376C182.704 136.004 183 137.878 183 140C183 142.122 182.704 143.996 182.112 145.624C181.52 147.251 180.689 148.528 179.618 149.455C178.56 150.361 177.326 150.815 175.916 150.815H170.531ZM171.929 148.837H175.84C177.011 148.837 178.025 148.466 178.882 147.725C179.751 146.963 180.424 145.922 180.903 144.604C181.382 143.265 181.621 141.73 181.621 140C181.621 138.249 181.382 136.714 180.903 135.396C180.424 134.078 179.751 133.048 178.882 132.306C178.025 131.544 177.011 131.163 175.84 131.163H171.929V148.837Z" stroke="#8AA95B" mask="url(#path-7-outside-1_208_32)"/>
<circle cx="108" cy="140.187" r="1.5" fill="#8AA95B" stroke="#8AA95B"/>
</svg>
