<svg width="183" height="178" viewBox="0 0 183 178" fill="none" xmlns="http://www.w3.org/2000/svg">
<path d="M0 177.188L182 177.188" stroke="#90739A"/>
<line x1="-4.37114e-08" y1="50.6876" x2="57" y2="50.6876" stroke="#90739A"/>
<path d="M124 50.6876L182.5 50.6876" stroke="#90739A"/>
<path d="M77.7105 66.7815C77.6018 71.0704 85.3807 70.1997 85.5393 66.2806C85.7708 60.5596 85.0451 62.3434 84.7197 59.7428C84.5301 58.2272 84.6329 55.5727 83.0831 54.256C81.1801 52.6391 78.4213 53.7859 76.4282 54.1417C74.8945 54.4154 70.8933 56.3793 70.1246 56.8292C67.4897 58.5138 69.8658 64.4632 72.4512 64.139C72.9308 64.0789 75.9542 63.0835 76.6651 63.5985C77.7322 64.3716 77.7105 66.7815 77.7105 66.7815Z" fill="#8AA95B"/>
<path d="M78.5167 48.7603C77.961 50.326 76.7376 51.3209 75.7842 50.9825C74.8308 50.6441 74.5085 49.1005 75.0642 47.5348C75.62 45.9691 76.8434 44.9742 77.7967 45.3126C78.7501 45.651 79.0724 47.1946 78.5167 48.7603Z" fill="#8AA95B"/>
<path d="M93.4831 60.7291C92.3741 61.9662 90.8305 62.3912 90.0352 61.6783C89.2399 60.9654 89.4941 59.3846 90.603 58.1475C91.712 56.9103 93.2557 56.4853 94.051 57.1982C94.8463 57.9111 94.592 59.4919 93.4831 60.7291Z" fill="#8AA95B"/>
<path d="M86.9107 46.9201C85.9829 48.5977 84.3565 49.4742 83.278 48.8778C82.1996 48.2813 82.0774 46.4378 83.0052 44.7602C83.933 43.0826 85.5594 42.2061 86.6379 42.8025C87.7164 43.399 87.8385 45.2425 86.9107 46.9201Z" fill="#8AA95B"/>
<path d="M92.4175 52.7533C91.068 54.5199 89.0534 55.2486 87.9178 54.3811C86.7822 53.5136 86.9556 51.3783 88.305 49.6118C89.6545 47.8453 91.669 47.1165 92.8047 47.984C93.9403 48.8515 93.7669 50.9868 92.4175 52.7533Z" fill="#8AA95B"/>
<path d="M77.7105 66.7815C77.6018 71.0704 85.3807 70.1997 85.5393 66.2806C85.7708 60.5596 85.0451 62.3434 84.7197 59.7428C84.5301 58.2272 84.6329 55.5727 83.0831 54.256C81.1801 52.6391 78.4213 53.7859 76.4282 54.1417C74.8945 54.4154 70.8933 56.3793 70.1246 56.8292C67.4897 58.5138 69.8658 64.4632 72.4512 64.139C72.9308 64.0789 75.9542 63.0835 76.6651 63.5985C77.7322 64.3716 77.7105 66.7815 77.7105 66.7815Z" stroke="#8AA95B" stroke-width="1.25"/>
<path d="M78.5167 48.7603C77.961 50.326 76.7376 51.3209 75.7842 50.9825C74.8308 50.6441 74.5085 49.1005 75.0642 47.5348C75.62 45.9691 76.8434 44.9742 77.7967 45.3126C78.7501 45.651 79.0724 47.1946 78.5167 48.7603Z" stroke="#8AA95B" stroke-width="1.25"/>
<path d="M93.4831 60.7291C92.3741 61.9662 90.8305 62.3912 90.0352 61.6783C89.2399 60.9654 89.4941 59.3846 90.603 58.1475C91.712 56.9103 93.2557 56.4853 94.051 57.1982C94.8463 57.9111 94.592 59.4919 93.4831 60.7291Z" stroke="#8AA95B" stroke-width="1.25"/>
<path d="M86.9107 46.9201C85.9829 48.5977 84.3565 49.4742 83.278 48.8778C82.1996 48.2813 82.0774 46.4378 83.0052 44.7602C83.933 43.0826 85.5594 42.2061 86.6379 42.8025C87.7164 43.399 87.8385 45.2425 86.9107 46.9201Z" stroke="#8AA95B" stroke-width="1.25"/>
<path d="M92.4175 52.7533C91.068 54.5199 89.0534 55.2486 87.9178 54.3811C86.7822 53.5136 86.9556 51.3783 88.305 49.6118C89.6545 47.8453 91.669 47.1165 92.8047 47.984C93.9403 48.8515 93.7669 50.9868 92.4175 52.7533Z" stroke="#8AA95B" stroke-width="1.25"/>
<path d="M113.052 69.7243C103.624 69.8861 101.001 61.9202 102.039 56.9043C102.378 56.0588 102.962 51.3 99.3592 43.1765C94.8559 33.022 90.3122 27.827 89.738 24.8853C88.9724 20.9631 90.4362 19.6053 91.582 18.8322C92.7278 18.0591 95.7574 17.0964 97.9698 17.9741C102.342 19.7089 104.749 21.3828 109.707 21.2739C114.47 21.1693 115.776 21.9458 116.521 24.6735C117.266 27.4012 114.276 32.4778 113.483 34.7264C112.036 38.8323 110.174 44.5694 110.843 47.9535C112.035 54.7518 117.061 54.6965 119.113 58.2007C121.164 61.7049 117.86 69.6417 113.052 69.7243Z" fill="#90739A"/>
<path d="M92.277 9.55162C92.744 12.6511 91.4636 15.4137 89.4172 15.722C87.3709 16.0303 85.3334 13.7676 84.8664 10.6681C84.3994 7.56866 85.6798 4.8061 87.7262 4.49778C89.7725 4.18946 91.81 6.45215 92.277 9.55162Z" fill="#90739A"/>
<path d="M99.0619 10.6945C99.3637 12.3246 98.768 13.8016 97.7315 13.9935C96.6949 14.1854 95.61 13.0195 95.3082 11.3894C95.0064 9.75932 95.602 8.28231 96.6386 8.0904C97.6752 7.89849 98.7601 9.06437 99.0619 10.6945Z" fill="#90739A"/>
<path d="M104.53 12.2125C104.689 13.6247 104.134 14.8466 103.291 14.9417C102.448 15.0369 101.635 13.9692 101.476 12.5571C101.316 11.1449 101.871 9.92298 102.714 9.82783C103.557 9.73268 104.37 10.8003 104.53 12.2125Z" fill="#90739A"/>
<path d="M109.758 14.8855C109.853 16.2255 109.347 17.2603 108.577 17.3154C107.807 17.3706 107.105 16.3289 107.009 14.9889C106.913 13.6489 107.46 12.5179 108.23 12.4628C109 12.4077 109.662 13.5455 109.758 14.8855Z" fill="#90739A"/>
<path d="M114.2 16.736C114.399 17.8106 113.966 18.7919 113.232 18.9278C112.498 19.0636 111.741 18.3027 111.542 17.2281C111.343 16.1535 111.777 15.1722 112.511 15.0363C113.245 14.9004 114.001 15.6614 114.2 16.736Z" fill="#90739A"/>
<path d="M113.052 69.7243C103.624 69.8861 101.001 61.9202 102.039 56.9043C102.378 56.0588 102.962 51.3 99.3592 43.1765C94.8559 33.022 90.3122 27.827 89.738 24.8853C88.9724 20.9631 90.4362 19.6053 91.582 18.8322C92.7278 18.0591 95.7574 17.0964 97.9698 17.9741C102.342 19.7089 104.749 21.3828 109.707 21.2739C114.47 21.1693 115.776 21.9458 116.521 24.6735C117.266 27.4012 114.276 32.4778 113.483 34.7264C112.036 38.8323 110.174 44.5694 110.843 47.9535C112.035 54.7518 117.061 54.6965 119.113 58.2007C121.164 61.7049 117.86 69.6417 113.052 69.7243Z" stroke="#90739A" stroke-width="1.25" stroke-linecap="round" stroke-linejoin="round"/>
<path d="M92.277 9.55162C92.744 12.6511 91.4636 15.4137 89.4172 15.722C87.3709 16.0303 85.3334 13.7676 84.8664 10.6681C84.3994 7.56866 85.6798 4.8061 87.7262 4.49778C89.7725 4.18946 91.81 6.45215 92.277 9.55162Z" stroke="#90739A" stroke-width="1.25" stroke-linecap="round" stroke-linejoin="round"/>
<path d="M99.0619 10.6945C99.3637 12.3246 98.768 13.8016 97.7315 13.9935C96.6949 14.1854 95.61 13.0195 95.3082 11.3894C95.0064 9.75932 95.602 8.28231 96.6386 8.0904C97.6752 7.89849 98.7601 9.06437 99.0619 10.6945Z" stroke="#90739A" stroke-width="1.25" stroke-linecap="round" stroke-linejoin="round"/>
<path d="M104.53 12.2125C104.689 13.6247 104.134 14.8466 103.291 14.9417C102.448 15.0369 101.635 13.9692 101.476 12.5571C101.316 11.1449 101.871 9.92298 102.714 9.82783C103.557 9.73268 104.37 10.8003 104.53 12.2125Z" stroke="#90739A" stroke-width="1.25" stroke-linecap="round" stroke-linejoin="round"/>
<path d="M109.758 14.8855C109.853 16.2255 109.347 17.2603 108.577 17.3154C107.807 17.3706 107.105 16.3289 107.009 14.9889C106.913 13.6489 107.46 12.5179 108.23 12.4628C109 12.4077 109.662 13.5455 109.758 14.8855Z" stroke="#90739A" stroke-width="1.25" stroke-linecap="round" stroke-linejoin="round"/>
<path d="M114.2 16.736C114.399 17.8106 113.966 18.7919 113.232 18.9278C112.498 19.0636 111.741 18.3027 111.542 17.2281C111.343 16.1535 111.777 15.1722 112.511 15.0363C113.245 14.9004 114.001 15.6614 114.2 16.736Z" stroke="#90739A" stroke-width="1.25" stroke-linecap="round" stroke-linejoin="round"/>
<path d="M10.8002 112.188V84.9304H0V82.1876H24.8493V84.9304H14.049V112.188H10.8002Z" fill="#2D4A00"/>
<path d="M55.0635 95.6018H71.3077V98.3018H55.0635V95.6018ZM55.4148 109.445H73.898V112.188H52.1659V82.1876H73.2395V84.9304H55.4148V109.445Z" fill="#2D4A00"/>
<path d="M96.6565 112.188L110.706 82.1876H113.911L127.96 112.188H124.535L111.628 84.0304H112.945L100.037 112.188H96.6565ZM102.188 104.173L103.154 101.602H121.023L121.989 104.173H102.188Z" fill="#2D4A00"/>
<path d="M150.5 112.188V82.1876H153.178L167.227 105.588H165.822L179.74 82.1876H182.418V112.188H179.301V86.9447H180.047L167.227 108.373H165.691L152.783 86.9447H153.617V112.188H150.5Z" fill="#2D4A00"/>
<mask id="path-7-outside-1_208_32" maskUnits="userSpaceOnUse" x="-0.5" y="127" width="183" height="24" fill="black">
<rect fill="white" x="-0.5" y="127" width="183" height="24"/>
<path d="M83 149.815V128.185H84.1524L90.1977 145.056H89.5932L95.5818 128.185H96.7342V149.815H95.3929V131.615H95.7141L90.1977 147.065H89.5365L83.9824 131.615H84.3413V149.815H83Z"/>
<path d="M105.99 137.857H112.98V139.803H105.99V137.857ZM106.141 147.837H114.095V149.815H104.743V128.185H113.811V130.163H106.141V147.837Z"/>
<path d="M121.081 149.815V128.185H122.233L131.358 146.972H130.753V128.185H132.133V149.815H130.98L121.874 131.028H122.479V149.815H121.081Z"/>
<path d="M142.795 150C141.813 150 140.868 149.743 139.961 149.228C139.067 148.692 138.375 148.012 137.883 147.188L138.431 145.427C138.897 146.169 139.521 146.797 140.302 147.312C141.095 147.806 141.926 148.053 142.795 148.053C143.626 148.053 144.3 147.889 144.817 147.559C145.346 147.209 145.73 146.745 145.969 146.169C146.221 145.592 146.347 144.953 146.347 144.253C146.347 143.408 146.196 142.729 145.893 142.214C145.604 141.699 145.22 141.297 144.741 141.008C144.262 140.699 143.733 140.432 143.154 140.205C142.575 139.979 141.995 139.742 141.416 139.494C140.837 139.227 140.302 138.876 139.81 138.444C139.332 138.011 138.941 137.445 138.639 136.744C138.349 136.023 138.205 135.086 138.205 133.933C138.205 132.861 138.375 131.883 138.715 130.997C139.067 130.091 139.603 129.37 140.32 128.834C141.038 128.278 141.958 128 143.079 128C143.822 128 144.558 128.175 145.289 128.525C146.019 128.855 146.649 129.318 147.178 129.916L146.706 131.739C146.139 131.121 145.534 130.668 144.892 130.379C144.262 130.091 143.652 129.947 143.06 129.947C142.266 129.947 141.611 130.122 141.095 130.472C140.579 130.822 140.194 131.296 139.943 131.893C139.703 132.47 139.584 133.129 139.584 133.871C139.584 134.715 139.728 135.395 140.018 135.91C140.32 136.425 140.711 136.827 141.189 137.115C141.681 137.404 142.216 137.661 142.795 137.888C143.375 138.114 143.948 138.361 144.514 138.629C145.094 138.897 145.623 139.247 146.101 139.68C146.592 140.092 146.983 140.648 147.273 141.348C147.575 142.049 147.726 142.965 147.726 144.098C147.726 145.149 147.55 146.127 147.197 147.034C146.844 147.92 146.303 148.641 145.572 149.197C144.854 149.732 143.929 150 142.795 150Z"/>
<path d="M160.215 150C159.22 150 158.301 149.732 157.457 149.197C156.613 148.641 155.883 147.868 155.266 146.879C154.648 145.891 154.164 144.727 153.811 143.388C153.471 142.049 153.301 140.586 153.301 139C153.301 137.414 153.471 135.951 153.811 134.612C154.164 133.273 154.648 132.11 155.266 131.121C155.895 130.132 156.632 129.37 157.476 128.834C158.32 128.278 159.239 128 160.234 128C161.191 128 162.092 128.268 162.936 128.803C163.779 129.318 164.491 130.101 165.07 131.152L164.182 132.604C163.641 131.698 163.043 131.049 162.388 130.657C161.733 130.245 161.028 130.039 160.272 130.039C159.478 130.039 158.742 130.266 158.062 130.719C157.381 131.152 156.79 131.78 156.286 132.604C155.782 133.407 155.385 134.355 155.096 135.447C154.819 136.518 154.68 137.702 154.68 139C154.68 140.298 154.819 141.493 155.096 142.584C155.385 143.655 155.782 144.603 156.286 145.427C156.79 146.23 157.381 146.859 158.062 147.312C158.742 147.744 159.478 147.961 160.272 147.961C161.028 147.961 161.733 147.755 162.388 147.343C163.043 146.931 163.641 146.272 164.182 145.365L165.07 146.817C164.491 147.868 163.779 148.661 162.936 149.197C162.092 149.732 161.185 150 160.215 150Z"/>
<path d="M180.423 128.185H181.802V149.815H180.423V128.185ZM172.149 149.815H170.751V128.185H172.149V149.815ZM180.556 139.834H171.998V137.826H180.556V139.834Z"/>
<path d="M10.1725 128H11.5516V149.629H10.1725V128ZM1.89798 149.629H0.5V128H1.89798V149.629ZM10.3048 139.649H1.74685V137.64H10.3048V139.649Z"/>
<path d="M23.8956 149.815C22.208 149.815 20.8793 149.022 19.9095 147.435C18.9397 145.849 18.4548 143.501 18.4548 140.39V128H19.8528V140.298C19.8528 142.852 20.2055 144.737 20.9108 145.952C21.616 147.168 22.611 147.775 23.8956 147.775C25.1928 147.775 26.1941 147.168 26.8994 145.952C27.6047 144.737 27.9573 142.852 27.9573 140.298V128H29.3175V140.39C29.3175 143.501 28.8327 145.849 27.8629 147.435C26.9057 149.022 25.5833 149.815 23.8956 149.815Z"/>
<path d="M36.2305 149.629V128H37.3829L46.5076 146.787H45.903V128H47.2821V149.629H46.1297L37.0239 130.843H37.6285V149.629H36.2305Z"/>
<path d="M54.2987 149.629V128H59.6828C61.0934 128 62.3276 128.464 63.3856 129.39C64.4561 130.297 65.2873 131.564 65.8793 133.191C66.4712 134.818 66.7672 136.693 66.7672 138.815C66.7672 140.936 66.4712 142.811 65.8793 144.438C65.2873 146.066 64.4561 147.343 63.3856 148.27C62.3276 149.176 61.0934 149.629 59.6828 149.629H54.2987ZM55.6967 147.652H59.6072C60.7785 147.652 61.7923 147.281 62.6488 146.539C63.5178 145.777 64.1916 144.737 64.6702 143.419C65.1488 142.08 65.3881 140.545 65.3881 138.815C65.3881 137.064 65.1488 135.529 64.6702 134.211C64.1916 132.892 63.5178 131.862 62.6488 131.121C61.7923 130.359 60.7785 129.978 59.6072 129.978H55.6967V147.652Z"/>
</mask>
<path d="M83 149.815V128.185H84.1524L90.1977 145.056H89.5932L95.5818 128.185H96.7342V149.815H95.3929V131.615H95.7141L90.1977 147.065H89.5365L83.9824 131.615H84.3413V149.815H83Z" fill="#8AA95B"/>
<path d="M105.99 137.857H112.98V139.803H105.99V137.857ZM106.141 147.837H114.095V149.815H104.743V128.185H113.811V130.163H106.141V147.837Z" fill="#8AA95B"/>
<path d="M121.081 149.815V128.185H122.233L131.358 146.972H130.753V128.185H132.133V149.815H130.98L121.874 131.028H122.479V149.815H121.081Z" fill="#8AA95B"/>
<path d="M142.795 150C141.813 150 140.868 149.743 139.961 149.228C139.067 148.692 138.375 148.012 137.883 147.188L138.431 145.427C138.897 146.169 139.521 146.797 140.302 147.312C141.095 147.806 141.926 148.053 142.795 148.053C143.626 148.053 144.3 147.889 144.817 147.559C145.346 147.209 145.73 146.745 145.969 146.169C146.221 145.592 146.347 144.953 146.347 144.253C146.347 143.408 146.196 142.729 145.893 142.214C145.604 141.699 145.22 141.297 144.741 141.008C144.262 140.699 143.733 140.432 143.154 140.205C142.575 139.979 141.995 139.742 141.416 139.494C140.837 139.227 140.302 138.876 139.81 138.444C139.332 138.011 138.941 137.445 138.639 136.744C138.349 136.023 138.205 135.086 138.205 133.933C138.205 132.861 138.375 131.883 138.715 130.997C139.067 130.091 139.603 129.37 140.32 128.834C141.038 128.278 141.958 128 143.079 128C143.822 128 144.558 128.175 145.289 128.525C146.019 128.855 146.649 129.318 147.178 129.916L146.706 131.739C146.139 131.121 145.534 130.668 144.892 130.379C144.262 130.091 143.652 129.947 143.06 129.947C142.266 129.947 141.611 130.122 141.095 130.472C140.579 130.822 140.194 131.296 139.943 131.893C139.703 132.47 139.584 133.129 139.584 133.871C139.584 134.715 139.728 135.395 140.018 135.91C140.32 136.425 140.711 136.827 141.189 137.115C141.681 137.404 142.216 137.661 142.795 137.888C143.375 138.114 143.948 138.361 144.514 138.629C145.094 138.897 145.623 139.247 146.101 139.68C146.592 140.092 146.983 140.648 147.273 141.348C147.575 142.049 147.726 142.965 147.726 144.098C147.726 145.149 147.55 146.127 147.197 147.034C146.844 147.92 146.303 148.641 145.572 149.197C144.854 149.732 143.929 150 142.795 150Z" fill="#8AA95B"/>
<path d="M160.215 150C159.22 150 158.301 149.732 157.457 149.197C156.613 148.641 155.883 147.868 155.266 146.879C154.648 145.891 154.164 144.727 153.811 143.388C153.471 142.049 153.301 140.586 153.301 139C153.301 137.414 153.471 135.951 153.811 134.612C154.164 133.273 154.648 132.11 155.266 131.121C155.895 130.132 156.632 129.37 157.476 128.834C158.32 128.278 159.239 128 160.234 128C161.191 128 162.092 128.268 162.936 128.803C163.779 129.318 164.491 130.101 165.07 131.152L164.182 132.604C163.641 131.698 163.043 131.049 162.388 130.657C161.733 130.245 161.028 130.039 160.272 130.039C159.478 130.039 158.742 130.266 158.062 130.719C157.381 131.152 156.79 131.78 156.286 132.604C155.782 133.407 155.385 134.355 155.096 135.447C154.819 136.518 154.68 137.702 154.68 139C154.68 140.298 154.819 141.493 155.096 142.584C155.385 143.655 155.782 144.603 156.286 145.427C156.79 146.23 157.381 146.859 158.062 147.312C158.742 147.744 159.478 147.961 160.272 147.961C161.028 147.961 161.733 147.755 162.388 147.343C163.043 146.931 163.641 146.272 164.182 145.365L165.07 146.817C164.491 147.868 163.779 148.661 162.936 149.197C162.092 149.732 161.185 150 160.215 150Z" fill="#8AA95B"/>
<path d="M180.423 128.185H181.802V149.815H180.423V128.185ZM172.149 149.815H170.751V128.185H172.149V149.815ZM180.556 139.834H171.998V137.826H180.556V139.834Z" fill="#8AA95B"/>
<path d="M10.1725 128H11.5516V149.629H10.1725V128ZM1.89798 149.629H0.5V128H1.89798V149.629ZM10.3048 139.649H1.74685V137.64H10.3048V139.649Z" fill="#8AA95B"/>
<path d="M23.8956 149.815C22.208 149.815 20.8793 149.022 19.9095 147.435C18.9397 145.849 18.4548 143.501 18.4548 140.39V128H19.8528V140.298C19.8528 142.852 20.2055 144.737 20.9108 145.952C21.616 147.168 22.611 147.775 23.8956 147.775C25.1928 147.775 26.1941 147.168 26.8994 145.952C27.6047 144.737 27.9573 142.852 27.9573 140.298V128H29.3175V140.39C29.3175 143.501 28.8327 145.849 27.8629 147.435C26.9057 149.022 25.5833 149.815 23.8956 149.815Z" fill="#8AA95B"/>
<path d="M36.2305 149.629V128H37.3829L46.5076 146.787H45.903V128H47.2821V149.629H46.1297L37.0239 130.843H37.6285V149.629H36.2305Z" fill="#8AA95B"/>
<path d="M54.2987 149.629V128H59.6828C61.0934 128 62.3276 128.464 63.3856 129.39C64.4561 130.297 65.2873 131.564 65.8793 133.191C66.4712 134.818 66.7672 136.693 66.7672 138.815C66.7672 140.936 66.4712 142.811 65.8793 144.438C65.2873 146.066 64.4561 147.343 63.3856 148.27C62.3276 149.176 61.0934 149.629 59.6828 149.629H54.2987ZM55.6967 147.652H59.6072C60.7785 147.652 61.7923 147.281 62.6488 146.539C63.5178 145.777 64.1916 144.737 64.6702 143.419C65.1488 142.08 65.3881 140.545 65.3881 138.815C65.3881 137.064 65.1488 135.529 64.6702 134.211C64.1916 132.892 63.5178 131.862 62.6488 131.121C61.7923 130.359 60.7785 129.978 59.6072 129.978H55.6967V147.652Z" fill="#8AA95B"/>
<path d="M83 149.815V128.185H84.1524L90.1977 145.056H89.5932L95.5818 128.185H96.7342V149.815H95.3929V131.615H95.7141L90.1977 147.065H89.5365L83.9824 131.615H84.3413V149.815H83Z" stroke="#8AA95B" mask="url(#path-7-outside-1_208_32)"/>
<path d="M105.99 137.857H112.98V139.803H105.99V137.857ZM106.141 147.837H114.095V149.815H104.743V128.185H113.811V130.163H106.141V147.837Z" stroke="#8AA95B" mask="url(#path-7-outside-1_208_32)"/>
<path d="M121.081 149.815V128.185H122.233L131.358 146.972H130.753V128.185H132.133V149.815H130.98L121.874 131.028H122.479V149.815H121.081Z" stroke="#8AA95B" mask="url(#path-7-outside-1_208_32)"/>
<path d="M142.795 150C141.813 150 140.868 149.743 139.961 149.228C139.067 148.692 138.375 148.012 137.883 147.188L138.431 145.427C138.897 146.169 139.521 146.797 140.302 147.312C141.095 147.806 141.926 148.053 142.795 148.053C143.626 148.053 144.3 147.889 144.817 147.559C145.346 147.209 145.73 146.745 145.969 146.169C146.221 145.592 146.347 144.953 146.347 144.253C146.347 143.408 146.196 142.729 145.893 142.214C145.604 141.699 145.22 141.297 144.741 141.008C144.262 140.699 143.733 140.432 143.154 140.205C142.575 139.979 141.995 139.742 141.416 139.494C140.837 139.227 140.302 138.876 139.81 138.444C139.332 138.011 138.941 137.445 138.639 136.744C138.349 136.023 138.205 135.086 138.205 133.933C138.205 132.861 138.375 131.883 138.715 130.997C139.067 130.091 139.603 129.37 140.32 128.834C141.038 128.278 141.958 128 143.079 128C143.822 128 144.558 128.175 145.289 128.525C146.019 128.855 146.649 129.318 147.178 129.916L146.706 131.739C146.139 131.121 145.534 130.668 144.892 130.379C144.262 130.091 143.652 129.947 143.06 129.947C142.266 129.947 141.611 130.122 141.095 130.472C140.579 130.822 140.194 131.296 139.943 131.893C139.703 132.47 139.584 133.129 139.584 133.871C139.584 134.715 139.728 135.395 140.018 135.91C140.32 136.425 140.711 136.827 141.189 137.115C141.681 137.404 142.216 137.661 142.795 137.888C143.375 138.114 143.948 138.361 144.514 138.629C145.094 138.897 145.623 139.247 146.101 139.68C146.592 140.092 146.983 140.648 147.273 141.348C147.575 142.049 147.726 142.965 147.726 144.098C147.726 145.149 147.55 146.127 147.197 147.034C146.844 147.92 146.303 148.641 145.572 149.197C144.854 149.732 143.929 150 142.795 150Z" stroke="#8AA95B" mask="url(#path-7-outside-1_208_32)"/>
<path d="M160.215 150C159.22 150 158.301 149.732 157.457 149.197C156.613 148.641 155.883 147.868 155.266 146.879C154.648 145.891 154.164 144.727 153.811 143.388C153.471 142.049 153.301 140.586 153.301 139C153.301 137.414 153.471 135.951 153.811 134.612C154.164 133.273 154.648 132.11 155.266 131.121C155.895 130.132 156.632 129.37 157.476 128.834C158.32 128.278 159.239 128 160.234 128C161.191 128 162.092 128.268 162.936 128.803C163.779 129.318 164.491 130.101 165.07 131.152L164.182 132.604C163.641 131.698 163.043 131.049 162.388 130.657C161.733 130.245 161.028 130.039 160.272 130.039C159.478 130.039 158.742 130.266 158.062 130.719C157.381 131.152 156.79 131.78 156.286 132.604C155.782 133.407 155.385 134.355 155.096 135.447C154.819 136.518 154.68 137.702 154.68 139C154.68 140.298 154.819 141.493 155.096 142.584C155.385 143.655 155.782 144.603 156.286 145.427C156.79 146.23 157.381 146.859 158.062 147.312C158.742 147.744 159.478 147.961 160.272 147.961C161.028 147.961 161.733 147.755 162.388 147.343C163.043 146.931 163.641 146.272 164.182 145.365L165.07 146.817C164.491 147.868 163.779 148.661 162.936 149.197C162.092 149.732 161.185 150 160.215 150Z" stroke="#8AA95B" mask="url(#path-7-outside-1_208_32)"/>
<path d="M180.423 128.185H181.802V149.815H180.423V128.185ZM172.149 149.815H170.751V128.185H172.149V149.815ZM180.556 139.834H171.998V137.826H180.556V139.834Z" stroke="#8AA95B" mask="url(#path-7-outside-1_208_32)"/>
<path d="M10.1725 128H11.5516V149.629H10.1725V128ZM1.89798 149.629H0.5V128H1.89798V149.629ZM10.3048 139.649H1.74685V137.64H10.3048V139.649Z" stroke="#8AA95B" mask="url(#path-7-outside-1_208_32)"/>
<path d="M23.8956 149.815C22.208 149.815 20.8793 149.022 19.9095 147.435C18.9397 145.849 18.4548 143.501 18.4548 140.39V128H19.8528V140.298C19.8528 142.852 20.2055 144.737 20.9108 145.952C21.616 147.168 22.611 147.775 23.8956 147.775C25.1928 147.775 26.1941 147.168 26.8994 145.952C27.6047 144.737 27.9573 142.852 27.9573 140.298V128H29.3175V140.39C29.3175 143.501 28.8327 145.849 27.8629 147.435C26.9057 149.022 25.5833 149.815 23.8956 149.815Z" stroke="#8AA95B" mask="url(#path-7-outside-1_208_32)"/>
<path d="M36.2305 149.629V128H37.3829L46.5076 146.787H45.903V128H47.2821V149.629H46.1297L37.0239 130.843H37.6285V149.629H36.2305Z" stroke="#8AA95B" mask="url(#path-7-outside-1_208_32)"/>
<path d="M54.2987 149.629V128H59.6828C61.0934 128 62.3276 128.464 63.3856 129.39C64.4561 130.297 65.2873 131.564 65.8793 133.191C66.4712 134.818 66.7672 136.693 66.7672 138.815C66.7672 140.936 66.4712 142.811 65.8793 144.438C65.2873 146.066 64.4561 147.343 63.3856 148.27C62.3276 149.176 61.0934 149.629 59.6828 149.629H54.2987ZM55.6967 147.652H59.6072C60.7785 147.652 61.7923 147.281 62.6488 146.539C63.5178 145.777 64.1916 144.737 64.6702 143.419C65.1488 142.08 65.3881 140.545 65.3881 138.815C65.3881 137.064 65.1488 135.529 64.6702 134.211C64.1916 132.892 63.5178 131.862 62.6488 131.121C61.7923 130.359 60.7785 129.978 59.6072 129.978H55.6967V147.652Z" stroke="#8AA95B" mask="url(#path-7-outside-1_208_32)"/>
<path d="M75 139.5C75.8284 139.5 76.5 140.172 76.5 141C76.5 141.828 75.8284 142.5 75 142.5C74.1716 142.5 73.5 141.828 73.5 141C73.5 140.172 74.1716 139.5 75 139.5Z" fill="#8AA95B" stroke="#8AA95B"/>
</svg>
