<svg width="634" height="1399" viewBox="0 0 634 1399" fill="none" xmlns="http://www.w3.org/2000/svg">
<g id="walking">
<g id="paw12">
<path d="M584.408 1282.19C587.827 1267.69 613.183 1277.48 610.257 1290.78C605.986 1310.2 605.123 1303.57 601.736 1312.01C599.762 1316.93 597.765 1325.94 591.398 1328.99C583.581 1332.74 575.328 1326.46 568.948 1323.51C564.039 1321.23 552.335 1311.11 550.151 1308.92C542.789 1300.94 556.018 1283.05 564.414 1286.42C565.972 1287.05 575.247 1293.06 578.089 1291.96C582.354 1290.3 584.408 1282.19 584.408 1282.19Z" fill="#E8DFAB"/>
<path d="M571.214 1343.42C570.729 1337.67 567.498 1333.25 563.998 1333.55C560.498 1333.84 558.053 1338.74 558.538 1344.49C559.023 1350.24 562.254 1354.66 565.754 1354.36C569.254 1354.07 571.699 1349.17 571.214 1343.42Z" fill="#E8DFAB"/>
<path d="M632.036 1316.43C629.403 1311.3 624.594 1308.51 621.294 1310.2C617.994 1311.89 617.453 1317.43 620.086 1322.56C622.718 1327.69 627.528 1330.48 630.828 1328.79C634.127 1327.1 634.668 1321.57 632.036 1316.43Z" fill="#E8DFAB"/>
<path d="M597.779 1357.01C596.144 1350.55 591.455 1346.18 587.307 1347.23C583.159 1348.28 581.122 1354.36 582.758 1360.81C584.393 1367.27 589.082 1371.65 593.23 1370.59C597.378 1369.54 599.415 1363.46 597.779 1357.01Z" fill="#E8DFAB"/>
<path d="M621.419 1342.28C618.446 1335.15 612.324 1330.93 607.745 1332.84C603.165 1334.75 601.863 1342.07 604.837 1349.2C607.81 1356.32 613.932 1360.55 618.511 1358.63C623.091 1356.72 624.392 1349.4 621.419 1342.28Z" fill="#E8DFAB"/>
</g>
<g id="foot11">
<path d="M362.944 1194.74C394.147 1189.37 406.932 1214.46 406.056 1231.64C405.363 1234.62 405.863 1250.71 421.979 1275.82C442.124 1307.22 459.863 1322.13 463.275 1331.6C467.825 1344.22 463.662 1349.48 460.256 1352.63C456.85 1355.78 447.289 1360.53 439.497 1358.75C424.098 1355.23 415.254 1350.91 398.855 1353.81C383.104 1356.6 378.371 1354.69 374.502 1346.02C370.633 1337.35 377.957 1318.97 379.436 1311.1C382.137 1296.73 385.375 1276.74 381.425 1265.85C373.987 1243.9 357.334 1246.66 348.732 1236.08C340.13 1225.5 347.029 1197.47 362.944 1194.74Z" fill="#90739A"/>
<path d="M462.703 1383.78C459.566 1373.74 462.4 1363.91 469.033 1361.84C475.666 1359.77 483.586 1366.24 486.724 1376.28C489.861 1386.33 487.027 1396.15 480.394 1398.22C473.76 1400.29 465.84 1393.83 462.703 1383.78Z" fill="#90739A"/>
<path d="M439.602 1383.47C437.766 1378.21 438.986 1373 442.327 1371.84C445.669 1370.67 449.866 1373.98 451.703 1379.24C453.539 1384.49 452.319 1389.7 448.977 1390.87C445.636 1392.03 441.438 1388.72 439.602 1383.47Z" fill="#90739A"/>
<path d="M420.679 1381.23C419.428 1376.62 420.642 1372.28 423.392 1371.54C426.142 1370.79 429.386 1373.92 430.638 1378.52C431.89 1383.13 430.675 1387.46 427.925 1388.21C425.176 1388.96 421.931 1385.83 420.679 1381.23Z" fill="#90739A"/>
<path d="M401.962 1375.03C400.957 1370.64 402.107 1366.94 404.635 1366.37C407.163 1365.79 410.026 1368.89 411.03 1373.28C412.035 1377.68 410.8 1381.71 408.272 1382.29C405.745 1382.87 402.966 1379.43 401.962 1375.03Z" fill="#90739A"/>
<path d="M386.27 1371.17C385.06 1367.71 385.996 1364.23 388.363 1363.4C390.729 1362.57 393.629 1364.71 394.839 1368.18C396.05 1371.64 395.113 1375.12 392.747 1375.94C390.38 1376.77 387.481 1374.63 386.27 1371.17Z" fill="#90739A"/>
</g>
<g id="paw10">
<path d="M255.408 1137.19C258.827 1122.69 284.183 1132.48 281.257 1145.78C276.986 1165.2 276.123 1158.56 272.736 1167.01C270.762 1171.93 268.765 1180.94 262.398 1183.99C254.581 1187.74 246.328 1181.46 239.948 1178.51C235.039 1176.23 223.335 1166.11 221.151 1163.92C213.789 1155.94 227.018 1138.05 235.414 1141.42C236.972 1142.05 246.247 1148.06 249.089 1146.96C253.354 1145.3 255.408 1137.19 255.408 1137.19Z" fill="#E8DFAB"/>
<path d="M242.214 1198.42C241.729 1192.67 238.498 1188.25 234.998 1188.55C231.498 1188.84 229.053 1193.74 229.538 1199.49C230.023 1205.24 233.254 1209.66 236.754 1209.36C240.254 1209.07 242.699 1204.17 242.214 1198.42Z" fill="#E8DFAB"/>
<path d="M303.036 1171.43C300.403 1166.3 295.594 1163.51 292.294 1165.2C288.994 1166.89 288.453 1172.43 291.086 1177.56C293.718 1182.69 298.528 1185.48 301.828 1183.79C305.127 1182.1 305.668 1176.56 303.036 1171.43Z" fill="#E8DFAB"/>
<path d="M268.779 1212.01C267.144 1205.55 262.455 1201.18 258.307 1202.23C254.159 1203.28 252.122 1209.36 253.758 1215.81C255.393 1222.27 260.082 1226.65 264.23 1225.59C268.378 1224.54 270.415 1218.46 268.779 1212.01Z" fill="#E8DFAB"/>
<path d="M292.419 1197.28C289.446 1190.15 283.324 1185.93 278.745 1187.84C274.165 1189.75 272.863 1197.07 275.837 1204.2C278.81 1211.32 284.932 1215.55 289.511 1213.63C294.091 1211.72 295.392 1204.4 292.419 1197.28Z" fill="#E8DFAB"/>
</g>
<g id="paw9">
<path d="M418.305 1005.98C421.724 991.48 447.08 1001.27 444.154 1014.57C439.883 1033.99 439.02 1027.36 435.633 1035.8C433.659 1040.72 431.662 1049.73 425.295 1052.78C417.478 1056.53 409.225 1050.25 402.845 1047.3C397.936 1045.02 386.232 1034.9 384.048 1032.71C376.686 1024.73 389.915 1006.84 398.311 1010.21C399.869 1010.84 409.144 1016.85 411.986 1015.75C416.252 1014.09 418.305 1005.98 418.305 1005.98Z" fill="#E8DFAB"/>
<path d="M405.111 1067.21C404.626 1061.46 401.396 1057.04 397.895 1057.34C394.395 1057.63 391.951 1062.53 392.435 1068.28C392.92 1074.03 396.151 1078.45 399.651 1078.15C403.151 1077.86 405.596 1072.96 405.111 1067.21Z" fill="#E8DFAB"/>
<path d="M465.933 1040.22C463.3 1035.09 458.491 1032.3 455.191 1033.99C451.891 1035.68 451.35 1041.22 453.983 1046.35C456.616 1051.48 461.425 1054.27 464.725 1052.58C468.024 1050.89 468.565 1045.36 465.933 1040.22Z" fill="#E8DFAB"/>
<path d="M431.676 1080.8C430.041 1074.34 425.352 1069.97 421.204 1071.02C417.056 1072.07 415.019 1078.15 416.655 1084.6C418.29 1091.06 422.979 1095.44 427.127 1094.38C431.275 1093.33 433.312 1087.25 431.676 1080.8Z" fill="#E8DFAB"/>
<path d="M455.316 1066.07C452.343 1058.94 446.221 1054.72 441.642 1056.63C437.063 1058.54 435.761 1065.86 438.734 1072.99C441.707 1080.11 447.829 1084.34 452.408 1082.42C456.988 1080.51 458.29 1073.19 455.316 1066.07Z" fill="#E8DFAB"/>
</g>
<g id="foot8">
<path d="M325.77 728.477C297.788 743.291 302.995 770.967 314.181 784.031C316.55 785.967 325.985 799.012 328.567 828.739C331.795 865.899 326.861 888.542 329.944 898.122C334.054 910.896 340.56 912.514 345.183 912.929C349.806 913.344 360.275 911.261 365.356 905.092C375.399 892.9 379.76 884.075 394.515 876.354C408.688 868.937 411.269 864.535 409.036 855.307C406.802 846.079 389.776 836.003 383.798 830.678C372.884 820.953 358.107 807.103 354.583 796.07C347.062 774.148 361.931 766.159 362.279 752.529C362.627 738.899 340.041 720.921 325.77 728.477Z" fill="#90739A"/>
<path d="M362.277 939.089C358.624 929.218 350.379 923.172 343.862 925.585C337.345 927.997 335.024 937.954 338.678 947.824C342.332 957.695 350.577 963.741 357.094 961.328C363.61 958.916 365.931 948.959 362.277 939.089Z" fill="#90739A"/>
<path d="M380.373 924.724C378.617 919.442 374.47 916.065 371.111 917.182C367.752 918.299 366.453 923.487 368.209 928.769C369.966 934.051 374.113 937.428 377.471 936.311C380.83 935.194 382.129 930.007 380.373 924.724Z" fill="#90739A"/>
<path d="M393.987 911.393C392.165 906.983 388.553 904.29 385.919 905.378C383.285 906.466 382.627 910.923 384.449 915.333C386.271 919.744 389.883 922.437 392.517 921.349C395.151 920.261 395.809 915.804 393.987 911.393Z" fill="#90739A"/>
<path d="M405.023 895.055C403.131 890.96 399.965 888.739 397.611 889.826C395.257 890.913 394.882 895.114 396.773 899.209C398.665 903.305 402.106 905.744 404.46 904.656C406.814 903.569 406.914 899.151 405.023 895.055Z" fill="#90739A"/>
<path d="M415.085 882.409C413.927 878.927 411.06 876.746 408.681 877.536C406.303 878.327 405.313 881.791 406.471 885.274C407.629 888.756 410.496 890.937 412.874 890.146C415.253 889.356 416.242 885.892 415.085 882.409Z" fill="#90739A"/>
</g>
<g id="paw7">
<path d="M171.68 821.743C175.1 807.245 200.455 817.032 197.529 830.334C193.259 849.75 192.396 843.12 189.008 851.566C187.034 856.488 185.037 865.494 178.671 868.548C170.853 872.299 162.6 866.013 156.221 863.06C151.312 860.788 139.608 850.662 137.423 848.473C130.061 840.491 143.29 822.607 151.687 825.977C153.244 826.602 162.519 832.613 165.361 831.511C169.627 829.856 171.68 821.743 171.68 821.743Z" fill="#E8DFAB"/>
<path d="M158.486 882.976C158.002 877.227 154.771 872.806 151.271 873.102C147.77 873.397 145.326 878.296 145.811 884.045C146.296 889.793 149.526 894.214 153.027 893.918C156.527 893.623 158.971 888.724 158.486 882.976Z" fill="#E8DFAB"/>
<path d="M219.308 855.986C216.676 850.853 211.866 848.064 208.566 849.756C205.267 851.448 204.726 856.981 207.358 862.115C209.991 867.248 214.8 870.037 218.1 868.345C221.4 866.652 221.941 861.119 219.308 855.986Z" fill="#E8DFAB"/>
<path d="M185.052 896.561C183.416 890.109 178.727 885.73 174.579 886.782C170.431 887.833 168.394 893.916 170.03 900.369C171.665 906.821 176.354 911.2 180.502 910.149C184.65 909.097 186.687 903.014 185.052 896.561Z" fill="#E8DFAB"/>
<path d="M208.692 881.831C205.719 874.707 199.596 870.482 195.017 872.394C190.438 874.305 189.136 881.629 192.109 888.752C195.082 895.875 201.205 900.1 205.784 898.189C210.363 896.278 211.665 888.954 208.692 881.831Z" fill="#E8DFAB"/>
</g>
<g id="paw6">
<path d="M250.647 611.868C254.067 597.369 279.422 607.157 276.497 620.458C272.226 639.875 271.363 633.244 267.975 641.691C266.001 646.613 264.004 655.618 257.638 658.673C249.82 662.424 241.567 656.138 235.188 653.185C230.279 650.912 218.575 640.787 216.39 638.597C209.028 630.615 222.257 612.732 230.654 616.102C232.211 616.727 241.486 622.737 244.328 621.635C248.594 619.98 250.647 611.868 250.647 611.868Z" fill="#E8DFAB"/>
<path d="M237.453 673.1C236.969 667.351 233.738 662.931 230.238 663.226C226.737 663.521 224.293 668.42 224.778 674.169C225.263 679.917 228.493 684.338 231.994 684.043C235.494 683.748 237.938 678.848 237.453 673.1Z" fill="#E8DFAB"/>
<path d="M298.275 646.111C295.643 640.978 290.834 638.188 287.534 639.881C284.234 641.573 283.693 647.106 286.325 652.239C288.958 657.372 293.767 660.162 297.067 658.469C300.367 656.777 300.908 651.244 298.275 646.111Z" fill="#E8DFAB"/>
<path d="M264.019 686.686C262.383 680.233 257.694 675.855 253.546 676.906C249.398 677.957 247.361 684.041 248.997 690.493C250.632 696.946 255.321 701.324 259.469 700.273C263.617 699.222 265.654 693.138 264.019 686.686Z" fill="#E8DFAB"/>
<path d="M287.659 671.955C284.686 664.832 278.563 660.607 273.984 662.518C269.405 664.43 268.103 671.753 271.076 678.877C274.049 686 280.172 690.225 284.751 688.314C289.33 686.402 290.632 679.078 287.659 671.955Z" fill="#E8DFAB"/>
</g>
<g id="paw5">
<path d="M273.39 417.908C276.532 403.346 302.07 412.649 299.398 426.004C295.498 445.498 294.509 438.885 291.283 447.395C289.403 452.354 287.578 461.396 281.271 464.571C273.527 468.47 265.156 462.343 258.721 459.512C253.769 457.333 241.874 447.433 239.649 445.285C232.136 437.445 245.021 419.313 253.481 422.522C255.05 423.117 264.438 428.95 267.258 427.794C271.492 426.058 273.39 417.908 273.39 417.908Z" fill="#E8DFAB"/>
<path d="M261.366 479.38C260.771 473.642 257.457 469.283 253.963 469.645C250.469 470.007 248.118 474.952 248.713 480.69C249.307 486.429 252.621 490.787 256.115 490.425C259.609 490.063 261.96 485.118 261.366 479.38Z" fill="#E8DFAB"/>
<path d="M321.662 451.236C318.932 446.154 314.071 443.457 310.804 445.212C307.537 446.967 307.101 452.51 309.831 457.592C312.561 462.674 317.423 465.371 320.69 463.616C323.957 461.861 324.392 456.318 321.662 451.236Z" fill="#E8DFAB"/>
<path d="M288.185 492.457C286.427 486.037 281.656 481.749 277.529 482.879C273.401 484.009 271.481 490.13 273.239 496.55C274.997 502.971 279.768 507.259 283.896 506.129C288.023 504.999 289.944 498.878 288.185 492.457Z" fill="#E8DFAB"/>
<path d="M311.54 477.279C308.432 470.213 302.23 466.106 297.688 468.104C293.146 470.102 291.984 477.45 295.093 484.515C298.201 491.58 304.403 495.688 308.945 493.689C313.487 491.691 314.649 484.344 311.54 477.279Z" fill="#E8DFAB"/>
</g>
<g id="foot4">
<path d="M77.273 486.25C108.923 487.089 116.556 514.196 112.338 530.87C111.077 533.657 108.421 549.535 119.316 577.315C132.934 612.039 147.416 630.132 148.911 640.085C150.904 653.354 145.795 657.695 141.838 660.12C137.881 662.546 127.576 665.331 120.283 662.063C105.869 655.602 98.0408 649.634 81.3914 649.273C65.3992 648.926 61.1304 646.13 59.0314 636.87C56.9323 627.611 67.7085 611.019 70.6971 603.592C76.1543 590.03 83.2387 571.057 81.4935 559.607C78.4905 536.626 61.6203 536.075 55.2524 524.019C48.8846 511.963 61.1304 485.822 77.273 486.25Z" fill="#90739A"/>
<path d="M138.147 691.151C137.034 680.685 141.734 671.605 148.644 670.871C155.554 670.137 162.058 678.026 163.17 688.492C164.282 698.958 159.582 708.037 152.672 708.772C145.762 709.506 139.259 701.617 138.147 691.151Z" fill="#90739A"/>
<path d="M115.553 686.323C114.78 680.811 116.994 675.943 120.5 675.451C124.005 674.959 127.474 679.029 128.247 684.542C129.021 690.055 126.806 694.922 123.301 695.414C119.796 695.906 116.327 691.836 115.553 686.323Z" fill="#90739A"/>
<path d="M97.4337 680.43C97.1061 675.669 99.1453 671.651 101.988 671.456C104.831 671.26 107.402 674.961 107.729 679.721C108.057 684.482 106.017 688.5 103.174 688.695C100.331 688.891 97.7612 685.19 97.4337 680.43Z" fill="#90739A"/>
<path d="M80.2876 670.697C80.1624 666.187 82.0122 662.79 84.6041 662.718C87.1959 662.646 89.3985 666.243 89.5238 670.753C89.6491 675.262 87.6495 678.976 85.0577 679.048C82.4659 679.12 80.4129 675.206 80.2876 670.697Z" fill="#90739A"/>
<path d="M65.6546 663.838C65.1447 660.204 66.7436 656.976 69.2259 656.627C71.7082 656.279 74.1338 658.942 74.6438 662.577C75.1537 666.211 73.5547 669.439 71.0724 669.787C68.5902 670.135 66.1645 667.472 65.6546 663.838Z" fill="#90739A"/>
</g>
<g id="foot3">
<path d="M183.776 141.958C154.583 154.214 157.297 182.244 167.273 196.255C169.459 198.395 177.691 212.23 177.608 242.069C177.505 279.369 170.568 301.481 172.783 311.298C175.736 324.388 182.072 326.581 186.639 327.407C191.206 328.233 201.819 327.093 207.431 321.403C218.522 310.156 223.654 301.756 239.04 295.383C253.819 289.262 256.783 285.108 255.382 275.718C253.982 266.327 237.923 254.771 232.446 248.933C222.443 238.272 208.962 223.158 206.437 211.854C200.905 189.348 216.427 182.718 217.991 169.174C219.555 155.63 198.665 135.707 183.776 141.958Z" fill="#90739A"/>
<path d="M201.329 354.989C198.571 344.831 190.899 338.073 184.193 339.894C177.487 341.715 174.286 351.425 177.044 361.582C179.801 371.739 187.473 378.498 194.179 376.677C200.885 374.856 204.086 365.146 201.329 354.989Z" fill="#90739A"/>
<path d="M220.634 342.298C219.357 336.88 215.528 333.146 212.083 333.959C208.638 334.771 206.881 339.822 208.158 345.24C209.436 350.658 213.264 354.391 216.71 353.579C220.155 352.767 221.912 347.716 220.634 342.298Z" fill="#90739A"/>
<path d="M235.385 330.236C233.964 325.68 230.607 322.675 227.887 323.524C225.166 324.372 224.112 328.753 225.533 333.308C226.954 337.864 230.311 340.869 233.031 340.021C235.752 339.172 236.805 334.791 235.385 330.236Z" fill="#90739A"/>
<path d="M247.836 314.949C246.318 310.701 243.362 308.206 240.92 309.078C238.479 309.951 237.73 314.102 239.248 318.35C240.766 322.597 243.976 325.334 246.418 324.461C248.859 323.589 249.354 319.197 247.836 314.949Z" fill="#90739A"/>
<path d="M258.986 303.252C258.144 299.68 255.484 297.251 253.044 297.827C250.604 298.402 249.309 301.764 250.152 305.335C250.994 308.907 253.654 311.336 256.094 310.761C258.534 310.185 259.829 306.824 258.986 303.252Z" fill="#90739A"/>
</g>
<g id="paw2">
<path d="M45.3278 239.666C53.2038 227.021 74.0984 244.402 67.0733 256.07C56.8182 273.102 58.1206 266.543 52.2101 273.463C48.7658 277.496 43.9943 285.39 36.9854 286.248C28.3791 287.303 22.5691 278.708 17.4689 273.87C13.5442 270.147 5.69216 256.811 4.32254 254.038C-0.101029 244.121 18.1517 231.406 25.0301 237.284C26.306 238.374 33.1722 247.035 36.2173 246.899C40.7883 246.695 45.3278 239.666 45.3278 239.666Z" fill="#E8DFAB"/>
<path d="M13.2477 293.464C14.6263 287.863 12.9789 282.641 9.56795 281.801C6.15703 280.962 2.2743 284.823 0.89563 290.424C-0.483041 296.026 1.16442 301.247 4.57534 302.087C7.98626 302.926 11.869 299.066 13.2477 293.464Z" fill="#E8DFAB"/>
<path d="M79.5061 287.34C78.6531 281.634 74.9883 277.454 71.3206 278.002C67.6528 278.551 65.371 283.62 66.224 289.326C67.077 295.031 70.7418 299.212 74.4095 298.663C78.0773 298.115 80.3591 293.045 79.5061 287.34Z" fill="#E8DFAB"/>
<path d="M34.0743 314.831C34.5878 308.194 31.5454 302.546 27.2789 302.216C23.0123 301.886 19.1373 306.999 18.6238 313.636C18.1102 320.272 21.1526 325.92 25.4191 326.25C29.6857 326.581 33.5607 321.468 34.0743 314.831Z" fill="#E8DFAB"/>
<path d="M61.1833 308.433C60.6438 300.733 56.1938 294.772 51.2439 295.119C46.294 295.465 42.7186 301.988 43.258 309.688C43.7974 317.388 48.2474 323.349 53.1974 323.002C58.1473 322.656 61.7227 316.132 61.1833 308.433Z" fill="#E8DFAB"/>
</g>
<g id="paw1">
<path d="M124.919 4.41257C132.795 -8.23183 153.69 9.14937 146.665 20.8169C136.41 37.8488 137.712 31.2902 131.802 38.2103C128.357 42.2429 123.586 50.1369 116.577 50.9954C107.971 52.0496 102.161 43.4551 97.0604 38.6171C93.1357 34.8942 85.2837 21.5577 83.9141 18.7847C79.4905 8.86777 97.7432 -3.84668 104.622 2.03113C105.898 3.12144 112.764 11.782 115.809 11.6463C120.38 11.4424 124.919 4.41257 124.919 4.41257Z" fill="#E8DFAB"/>
<path d="M92.8392 58.2112C94.2179 52.6095 92.5704 47.3879 89.1595 46.5485C85.7486 45.709 81.8659 49.5695 80.4872 55.1711C79.1085 60.7728 80.756 65.9943 84.1669 66.8338C87.5778 67.6733 91.4605 63.8128 92.8392 58.2112Z" fill="#E8DFAB"/>
<path d="M159.098 52.0864C158.245 46.381 154.58 42.2004 150.912 42.7487C147.244 43.2971 144.963 48.3667 145.816 54.0721C146.669 59.7776 150.333 63.9582 154.001 63.4098C157.669 62.8615 159.951 57.7918 159.098 52.0864Z" fill="#E8DFAB"/>
<path d="M113.666 79.5782C114.179 72.9413 111.137 67.2935 106.87 66.9633C102.604 66.6332 98.7289 71.7458 98.2153 78.3826C97.7017 85.0194 100.744 90.6673 105.011 90.9975C109.277 91.3276 113.152 86.215 113.666 79.5782Z" fill="#E8DFAB"/>
<path d="M140.775 73.1795C140.236 65.4796 135.786 59.5188 130.836 59.8655C125.886 60.2123 122.31 66.7354 122.85 74.4353C123.389 82.1352 127.839 88.0961 132.789 87.7493C137.739 87.4025 141.314 80.8794 140.775 73.1795Z" fill="#E8DFAB"/>
</g>
</g>
</svg>
